<?xml version="1.0" encoding="utf-8"?>
<!-- Generator: Adobe Illustrator 22.1.0, SVG Export Plug-In . SVG Version: 6.00 Build 0)  -->
<svg version="1.1" id="Layer_1" xmlns="http://www.w3.org/2000/svg" xmlns:xlink="http://www.w3.org/1999/xlink" x="0px" y="0px"
	 viewBox="0 0 735.3 696.8" style="enable-background:new 0 0 735.3 696.8;" xml:space="preserve">
<style type="text/css">
	.st0{fill:#FF6473;}
	.st1{fill:#233142;}
	.st2{fill:#1D2A33;}
	.st3{fill:#455D7A;}
	.st4{fill:#F95959;}
	.st5{fill:#AF4857;}
	.st6{fill:#C14C4C;}
	.st7{fill:#D6D6D6;}
	.st8{opacity:0.55;clip-path:url(#SVGID_2_);enable-background:new    ;}
	.st9{opacity:0.16;clip-path:url(#SVGID_4_);enable-background:new    ;}
	.st10{opacity:0.26;enable-background:new    ;}
	.st11{stroke:#F7F7F7;stroke-width:0.8997;stroke-miterlimit:10;}
	.st12{fill:#00222D;}
	.st13{fill:#114656;}
	.st14{fill:#1B8CAF;}
	.st15{fill:#E49D4D;}
	.st16{fill:#A06E3C;}
	.st17{fill:#CE8A4D;}
	.st18{fill:#EA5D6C;}
	.st19{opacity:0.21;enable-background:new    ;}
	.st20{opacity:0.1;enable-background:new    ;}
	.st21{fill:#F7F7F7;}
	.st22{fill:none;stroke:#CCCCCC;stroke-width:0.2974;stroke-miterlimit:10;}
	.st23{fill:url(#SVGID_5_);}
	.st24{fill:url(#SVGID_6_);}
	.st25{fill:#1F2A33;}
	.st26{enable-background:new    ;}
	.st27{fill:#FFFFFF;}
	.st28{fill:none;stroke:#CCCCCC;stroke-width:0.2189;stroke-miterlimit:10;}
	.st29{fill:url(#SVGID_7_);}
	.st30{fill:url(#SVGID_8_);}
	.st31{fill:url(#SVGID_9_);}
	.st32{fill:url(#SVGID_10_);}
	.st33{fill:#E5E5E5;}
	.st34{fill:url(#SVGID_11_);}
	.st35{fill:url(#SVGID_12_);}
	.st36{fill:url(#SVGID_13_);}
	.st37{fill:url(#SVGID_14_);}
	.st38{fill:url(#SVGID_15_);}
	.st39{fill:url(#SVGID_16_);}
	.st40{fill:url(#SVGID_17_);}
	.st41{fill:url(#SVGID_18_);}
	.st42{fill:#1C4C7C;}
	.st43{opacity:0.55;clip-path:url(#SVGID_20_);enable-background:new    ;}
	.st44{opacity:0.16;clip-path:url(#SVGID_22_);enable-background:new    ;}
	.st45{stroke:#F7F7F7;stroke-width:0.6407;stroke-miterlimit:10;}
	.st46{fill:#00DBFF;}
	.st47{fill:#393E46;}
	.st48{font-family:'ArialMT';}
	.st49{font-size:4.6255px;}
	.st50{fill:url(#SVGID_23_);}
	.st51{fill:url(#SVGID_24_);}
	.st52{fill:#B24444;}
	.st53{fill:none;stroke:#D1D1D1;stroke-width:3.219131e-02;stroke-miterlimit:10;}
	.st54{font-size:3.4426px;}
	.st55{fill:none;stroke:#4C4C4C;stroke-width:3.219131e-02;stroke-miterlimit:10;}
	.st56{fill:url(#SVGID_25_);}
	.st57{fill:#D65656;}
	.st58{fill:#8E3C3C;}
	.st59{fill:url(#SVGID_26_);}
	.st60{fill:#663030;}
	.st61{fill:url(#SVGID_27_);}
	.st62{fill:url(#SVGID_28_);}
	.st63{fill:#385068;}
	.st64{fill:#131D23;}
</style>
<g>
	<rect x="666.8" y="225.6" class="st0" width="16.7" height="15.6"/>
	<rect x="686.6" y="244.4" class="st1" width="16.7" height="15.6"/>
	<rect x="686.6" y="266.3" class="st2" width="16.7" height="15.6"/>
	<rect x="666.8" y="244.4" class="st3" width="16.7" height="15.6"/>
	<rect x="686.6" y="225.6" class="st4" width="16.7" height="15.6"/>
	<rect x="666.8" y="206" class="st5" width="16.7" height="15.6"/>
	<rect x="686.6" y="206" class="st6" width="16.7" height="15.6"/>
	<g>
		<path class="st4" d="M20.8,597.6l1.1,97.9c0,2.1,2.4,1.5,3.4-0.8l25-59.3c0.7-1.7,2.4-2.7,3.1-1.8L79.5,663c1,1.2,3.4-1.1,3.4-3.2
			l-0.7-98.1L20.8,597.6z"/>
		<path class="st1" d="M284.4,444.9L18.6,605.5c-7.2,4.1-18-1-18-12l0.1-414.6c0-7.6,4.8-15.4,10-18.8l273.7-158
			c7.2-4.1,22.2-2.6,22.2,8.4l-9.2,409.6C297.4,429.6,291.6,440.7,284.4,444.9z"/>
		<path class="st7" d="M294.4,446.9l-273.7,158c-7.2,4.1-13-0.3-13-9.8V186.9c0-9.6,5.8-20.7,13-24.8l273.7-158
			c7.2-4.1,13,0.3,13,9.8v408.2C307.4,431.6,301.6,442.7,294.4,446.9z"/>
		<path class="st2" d="M290.1,443l-265,153c-7.2,4.1-13-0.3-13-9.8V190.8c0.5-13.3,5.8-20.7,13-24.8l265-153c7.2-4.1,13,0.3,13,9.8
			v395.4C303.1,427.7,297.2,438.8,290.1,443z"/>
		<g>
			<g>
				<defs>
					<path id="SVGID_1_" d="M290.1,443l-265,153c-7.2,4.1-13-0.3-13-9.8V191.4c0.5-12.9,5.8-20.7,13-24.8l265-153
						c7.2-4.1,13,0.3,13,9.8v394.8C303.1,427.7,297.2,438.8,290.1,443z"/>
				</defs>
				<clipPath id="SVGID_2_">
					<use xlink:href="#SVGID_1_"  style="overflow:visible;"/>
				</clipPath>
				<polygon class="st8" points="317,-26.5 -26.8,686 369.6,443.8 339.1,-45.9 				"/>
			</g>
		</g>
		<path class="st3" d="M281.3,417.1L33.9,559.9c-7.2,4.1-13-0.3-13-9.8V198.7c0-9.6,5.8-20.7,13-24.8L281.3,31.1
			c7.2-4.1,13,0.3,13,9.8v351.4C294.3,401.8,288.4,412.9,281.3,417.1z"/>
		<g>
			<g>
				<defs>
					<path id="SVGID_3_" d="M281.3,417.1L33.9,559.9c-7.2,4.1-13-0.3-13-9.8V198.7c0-9.6,5.8-20.7,13-24.8L281.3,31.1
						c7.2-4.1,13,0.3,13,9.8v351.4C294.3,401.8,288.4,412.9,281.3,417.1z"/>
				</defs>
				<clipPath id="SVGID_4_">
					<use xlink:href="#SVGID_3_"  style="overflow:visible;"/>
				</clipPath>
				<polygon class="st9" points="307.4,-6 -15.6,642.5 356.7,415.5 328.2,-24 				"/>
			</g>
		</g>
		<path class="st10" d="M290.6,312l-33.3,156.3l-237.4,137C7,610.6,0.6,600.6,0.6,593.4l0,0v-17.8l0.1-0.4L24,465.9"/>
		<path class="st11" d="M196.1,489l-32.9,19c-3.1,1.8-5.6-0.1-5.6-4.3l0,0c0-4.1,2.5-9,5.6-10.7l32.9-19c3.1-1.8,5.6,0.1,5.6,4.3
			l0,0C201.7,482.4,199.2,487.2,196.1,489z"/>
		<g>
			<ellipse class="st12" cx="215.2" cy="46" rx="3.6" ry="2.1"/>
			<ellipse class="st12" cx="222.8" cy="41.6" rx="3.6" ry="2.1"/>
			<ellipse class="st12" cx="230.4" cy="37.3" rx="3.6" ry="2.1"/>
			<ellipse class="st12" cx="238" cy="32.9" rx="3.6" ry="2.1"/>
			<ellipse class="st12" cx="245.6" cy="28.5" rx="3.6" ry="2.1"/>
			<ellipse class="st12" cx="253.1" cy="24.1" rx="3.6" ry="2.1"/>
			<ellipse class="st12" cx="260.7" cy="19.7" rx="3.6" ry="2.1"/>
			<ellipse class="st12" cx="268.3" cy="15.3" rx="3.6" ry="2.1"/>
			<ellipse class="st12" cx="275.9" cy="11" rx="3.6" ry="2.1"/>
		</g>
		<path class="st13" d="M74.8,129.6l-13.3,7.7c-1.1,0.7-3.1,0.6-4.4-0.2l0,0c-1.3-0.8-1.6-2.9-0.4-3.5l13.4-6.7
			c1.1-0.7,3.1-0.6,4.4,0.2l0.4-0.6C76.2,127.2,75.9,128.9,74.8,129.6z"/>
		<path class="st14" d="M74.8,128.4l-13.3,7.7c-1.1,0.7-3.1,0.6-4.4-0.2l0,0c-1.3-0.8-1.4-1.9-0.3-2.5l13.3-7.7
			c1.1-0.7,3.1-0.6,4.4,0.2l0,0C75.8,126.6,75.9,127.8,74.8,128.4z"/>
		<g>
			<path class="st13" d="M2.2,235.1l-0.8-16.8c0-1.5,1.7-1.9,2.9-1.3l0,0c1.1,0.7,2.1,2.4,2.1,3.9v16.5c0,1.5-1.7,2.2-2.8,1.5h0.8
				C3.1,238.3,2.2,236.6,2.2,235.1z"/>
			<path class="st14" d="M1.3,235.1v-16.5c0-1.5,0.9-2.2,2.1-1.6l0,0c1.1,0.7,2.1,2.4,2.1,3.9v16.5c0,1.5-0.9,2.2-2.1,1.6l0,0
				C2.2,238.3,1.3,236.6,1.3,235.1z"/>
		</g>
		<g>
			<path class="st13" d="M2.2,260.1l-0.8-16.8c0-1.5,1.7-1.9,2.9-1.3l0,0c1.1,0.7,2.1,2.4,2.1,3.9v16.5c0,1.5-1.7,2.2-2.8,1.5h0.8
				C3.1,263.3,2.2,261.6,2.2,260.1z"/>
			<path class="st14" d="M1.3,260.1v-16.5c0-1.5,0.9-2.2,2.1-1.6l0,0c1.1,0.7,2.1,2.4,2.1,3.9v16.5c0,1.5-0.9,2.2-2.1,1.6l0,0
				C2.2,263.3,1.3,261.6,1.3,260.1z"/>
		</g>
		<path class="st15" d="M23.9,344"/>
		<path class="st15" d="M290.6,190"/>
		<g>
			<polyline class="st10" points="290.6,143.6 256.5,303.6 0.6,451.4 0.6,431.5 0.5,407.3 0.6,406.9 23.9,297.6 			"/>
			<g>
				<polygon class="st15" points="355.9,181.3 89.1,335.3 23.9,297.6 290.6,143.6 				"/>
				<polygon class="st16" points="89.1,344.9 23.9,307.3 23.9,297.6 89.1,335.3 				"/>
				<polygon class="st17" points="355.9,190.9 89.1,344.9 89.1,335.3 355.9,181.3 				"/>
			</g>
		</g>
		<g>
			<g>
				<polygon class="st15" points="355.9,349.7 89.1,503.7 23.9,466 290.6,312 				"/>
				<polygon class="st16" points="89.1,513.3 23.9,475.7 23.9,466 89.1,503.7 				"/>
				<polygon class="st17" points="355.9,359.3 89.1,513.3 89.1,503.7 355.9,349.7 				"/>
			</g>
		</g>
		<g>
			<polygon class="st18" points="74.4,465.8 64.5,459.9 64.5,459.8 74.4,465.7 			"/>
		</g>
		<polygon class="st19" points="156.2,250.1 122.6,246.9 113.2,246.1 166.8,215 203.9,223.8 		"/>
		<path class="st20" d="M155.7,152.6l69.5-41.6c0,0,0,88.1,0,91.7c0,3.6,0,5.8,0,5.8l-69.5,41.7V152.6z"/>
		<path class="st21" d="M225.2,111c0,0,2.1,4,4.7,5.6c3,1.8,8.6,2.4,8.6,2.4L169,160.6l-13.4-8L225.2,111z"/>
		<line class="st22" x1="155.8" y1="152.9" x2="225.2" y2="111"/>
		<line class="st22" x1="158.1" y1="154.4" x2="226.7" y2="113.4"/>
		<line class="st22" x1="160.8" y1="156.1" x2="228.5" y2="115.5"/>
		<line class="st22" x1="163.5" y1="157.7" x2="231.1" y2="117.2"/>
		<line class="st22" x1="166.2" y1="159.4" x2="234.8" y2="118.3"/>
		
			<linearGradient id="SVGID_5_" gradientUnits="userSpaceOnUse" x1="167.7161" y1="2101.8376" x2="157.2735" y2="1999.7705" gradientTransform="matrix(1 0 0 1 0 -1844)">
			<stop  offset="1.803357e-02" style="stop-color:#1D2A33"/>
			<stop  offset="2.599732e-02" style="stop-color:#1D2A34"/>
			<stop  offset="0.1779" style="stop-color:#222F3F"/>
			<stop  offset="0.3505" style="stop-color:#233142"/>
		</linearGradient>
		<polygon class="st23" points="169.1,258.2 155.7,250.2 155.7,152.6 169.1,160.6 		"/>
		
			<linearGradient id="SVGID_6_" gradientUnits="userSpaceOnUse" x1="223.3538" y1="2072.7461" x2="181.1123" y2="1985.8883" gradientTransform="matrix(1 0 0 1 0 -1844)">
			<stop  offset="0.2737" style="stop-color:#1D2A33"/>
			<stop  offset="0.2911" style="stop-color:#1D2A34"/>
			<stop  offset="0.6229" style="stop-color:#222F3F"/>
			<stop  offset="1" style="stop-color:#233142"/>
		</linearGradient>
		<path class="st24" d="M169.1,160.6l69.5-41.6c0,0,0,88.1,0,91.7c0,3.6,0,5.8,0,5.8l-69.5,41.6
			C169.1,258.1,169.1,160.6,169.1,160.6z"/>
		<g>
			<polygon class="st25" points="169.1,170.6 155.7,162.5 155.7,162.4 169.1,170.4 			"/>
		</g>
		<g>
			<polygon class="st25" points="169.1,188.1 155.7,180 155.7,179.8 169.1,187.9 			"/>
		</g>
		<g class="st26">
			<path class="st4" d="M173,192.2c-0.1,0-0.1-0.1-0.1-0.3V185c0-0.1,0-0.3,0.1-0.4c0.1-0.2,0.2-0.3,0.3-0.3l2.3-1.3
				c0.7-0.4,1.2-0.5,1.6-0.4c0.4,0.1,0.6,0.5,0.6,1.2c0,0.4-0.1,0.9-0.3,1.3c-0.2,0.4-0.4,0.7-0.7,1.1c0.4-0.1,0.7,0,1,0.1
				c0.3,0.2,0.4,0.5,0.4,1c0,0.7-0.2,1.4-0.6,2c-0.4,0.6-1,1.2-1.9,1.7l-2.4,1.4C173.2,192.2,173.1,192.2,173,192.2z M175.4,186.4
				c0.6-0.3,1-0.7,1.2-1.1c0.2-0.4,0.4-0.8,0.4-1.2c0-0.4-0.1-0.6-0.4-0.6c-0.3-0.1-0.6,0-1,0.3l-1.8,1v2.5L175.4,186.4z
				 M175.6,189.8c0.6-0.4,1.1-0.7,1.4-1.1c0.3-0.4,0.4-0.8,0.4-1.2c0-0.9-0.6-1-1.7-0.3l-1.9,1.1v2.6L175.6,189.8z"/>
		</g>
		<g class="st26">
			<path class="st27" d="M181.1,187.2c-0.5,0-0.9-0.3-1.2-0.8c-0.3-0.5-0.4-1.1-0.4-1.9c0-0.8,0.2-1.6,0.4-2.4
				c0.3-0.8,0.7-1.5,1.2-2.1c0.5-0.6,1.1-1.2,1.8-1.6c0.7-0.4,1.3-0.6,1.8-0.5s0.9,0.3,1.2,0.8s0.4,1.1,0.4,1.9
				c0,0.8-0.2,1.6-0.4,2.4s-0.7,1.5-1.2,2.1s-1.1,1.2-1.8,1.6C182.2,187.1,181.6,187.3,181.1,187.2z M184.3,184.5
				c0.4-0.5,0.7-1,0.9-1.6c0.2-0.6,0.3-1.2,0.3-1.8s-0.1-1.1-0.3-1.4s-0.5-0.6-0.9-0.6c-0.4,0-0.8,0.1-1.4,0.4
				c-0.5,0.3-1,0.7-1.4,1.2s-0.7,1-0.9,1.6c-0.2,0.6-0.3,1.2-0.3,1.8s0.1,1.1,0.3,1.4c0.2,0.4,0.5,0.6,0.9,0.6
				c0.4,0.1,0.8-0.1,1.4-0.4C183.4,185.4,183.9,185,184.3,184.5z"/>
			<path class="st27" d="M189.1,182.6c-0.5,0-0.9-0.3-1.2-0.8c-0.3-0.5-0.4-1.1-0.4-1.9c0-0.8,0.2-1.6,0.4-2.4
				c0.3-0.8,0.7-1.5,1.2-2.1c0.5-0.6,1.1-1.2,1.8-1.6c0.7-0.4,1.3-0.6,1.8-0.5c0.5,0.1,0.9,0.3,1.2,0.8s0.4,1.1,0.4,1.9
				c0,0.8-0.2,1.6-0.4,2.4s-0.7,1.5-1.2,2.1c-0.5,0.6-1.1,1.2-1.8,1.6C190.2,182.5,189.6,182.7,189.1,182.6z M192.3,179.9
				c0.4-0.5,0.7-1,0.9-1.6c0.2-0.6,0.3-1.2,0.3-1.8s-0.1-1.1-0.3-1.4c-0.2-0.4-0.5-0.6-0.9-0.6c-0.4,0-0.8,0.1-1.4,0.4
				c-0.5,0.3-1,0.7-1.4,1.2c-0.4,0.5-0.7,1-0.9,1.6c-0.2,0.6-0.3,1.2-0.3,1.8s0.1,1.1,0.3,1.4c0.2,0.4,0.5,0.6,0.9,0.6
				c0.4,0.1,0.8-0.1,1.4-0.4C191.5,180.8,191.9,180.4,192.3,179.9z"/>
			<path class="st27" d="M196,178.9c-0.1,0-0.1-0.1-0.1-0.3v-7c0-0.1,0-0.3,0.1-0.4c0.1-0.2,0.2-0.3,0.3-0.3s0.2-0.1,0.3,0
				c0.1,0.1,0.1,0.2,0.1,0.3v3.6l3.4-5.9c0.1-0.2,0.2-0.3,0.3-0.4c0.1-0.1,0.2-0.1,0.3,0c0.1,0,0.1,0.1,0.1,0.3c0,0.2,0,0.3-0.1,0.4
				l-2.3,3.9l2.6,2.3c0.1,0.1,0.1,0.2,0.1,0.3c0,0.1,0,0.3-0.1,0.4c-0.1,0.1-0.2,0.3-0.3,0.3c-0.2,0.1-0.3,0.1-0.4,0l-2.5-2.3
				l-1.1,2v2.1c0,0.1,0,0.3-0.1,0.4c-0.1,0.2-0.2,0.3-0.3,0.3S196.1,179,196,178.9z"/>
			<path class="st27" d="M204.9,173.5c-0.1,0-0.1,0-0.2-0.1c-0.1-0.1-0.1-0.1-0.1-0.2c0-0.1,0-0.3,0.1-0.4c0.1-0.1,0.2-0.2,0.3-0.3
				c0.1,0,0.1-0.1,0.2-0.1c0.6,0,1.3-0.3,1.9-0.7c1.2-0.7,1.7-1.4,1.7-2.3c0-0.2-0.1-0.4-0.2-0.4c-0.1-0.1-0.3-0.1-0.5,0
				c-0.2,0-0.5,0.1-0.9,0.2c-0.5,0.1-1,0.2-1.3,0.3s-0.6,0-0.8-0.2c-0.2-0.2-0.4-0.5-0.4-1c0-0.4,0.1-0.9,0.3-1.4
				c0.2-0.5,0.5-0.9,0.9-1.3s0.8-0.8,1.4-1.1c0.7-0.4,1.4-0.7,2-0.8c0.2,0,0.3,0.1,0.3,0.3c0,0.1,0,0.3-0.1,0.4s-0.2,0.2-0.3,0.3
				c0,0-0.1,0-0.2,0c-0.5,0.1-1,0.3-1.6,0.6c-0.5,0.3-0.9,0.7-1.3,1.1c-0.3,0.4-0.5,0.8-0.5,1.2c0,0.3,0.1,0.5,0.2,0.5
				c0.2,0.1,0.3,0.1,0.6,0.1c0.2,0,0.6-0.1,1-0.2c0.5-0.2,0.9-0.3,1.3-0.3c0.3,0,0.6,0,0.8,0.2c0.2,0.2,0.3,0.5,0.3,1
				c0,0.4-0.1,0.9-0.3,1.3c-0.2,0.5-0.5,0.9-0.9,1.3c-0.4,0.4-0.8,0.8-1.3,1C206.4,173.1,205.6,173.4,204.9,173.5z"/>
			<path class="st27" d="M211.3,170.1c-0.1,0-0.1-0.1-0.1-0.3v-7c0-0.1,0-0.3,0.1-0.4c0.1-0.2,0.2-0.3,0.3-0.3s0.2-0.1,0.3,0
				c0.1,0.1,0.1,0.1,0.1,0.3v7c0,0.1,0,0.3-0.1,0.4c-0.1,0.2-0.2,0.3-0.3,0.3S211.4,170.2,211.3,170.1z"/>
			<path class="st27" d="M215.2,167.5c-0.5,0-0.9-0.3-1.2-0.7c-0.3-0.5-0.4-1.1-0.4-1.9c0-0.8,0.2-1.6,0.5-2.4s0.7-1.5,1.2-2.2
				c0.5-0.6,1.1-1.2,1.7-1.5c0.5-0.3,1-0.5,1.3-0.6c0.4-0.1,0.8-0.1,1.1,0c0.1,0,0.1,0,0.1,0.1c0,0.1,0.1,0.1,0.1,0.2
				c0,0.1,0,0.3-0.1,0.4c-0.1,0.1-0.2,0.2-0.3,0.3c-0.1,0-0.1,0.1-0.2,0.1c-0.3,0-0.6,0-0.9,0.1s-0.6,0.2-1,0.4
				c-0.5,0.3-1,0.7-1.4,1.1s-0.7,1-0.9,1.6c-0.2,0.6-0.3,1.2-0.3,1.9c0,0.6,0.1,1.1,0.3,1.4c0.2,0.3,0.5,0.5,0.9,0.6
				c0.4,0,0.9-0.1,1.4-0.4c0.6-0.4,1.2-0.9,1.7-1.5v-2.1l-1.6,0.9c-0.1,0.1-0.2,0.1-0.3,0c-0.1,0-0.1-0.1-0.1-0.3s0-0.3,0.1-0.4
				c0.1-0.1,0.2-0.2,0.3-0.3l1.9-1.1c0.1-0.1,0.2-0.1,0.3,0c0.1,0.1,0.1,0.2,0.1,0.3v2.6c0,0.2,0,0.3-0.1,0.5s-0.2,0.3-0.3,0.4
				c-0.7,0.9-1.5,1.5-2.3,1.9C216.3,167.4,215.7,167.6,215.2,167.5z"/>
			<path class="st27" d="M221.6,164.2c-0.1,0-0.1-0.1-0.1-0.3v-7c0-0.1,0-0.3,0.1-0.4c0.1-0.2,0.2-0.3,0.3-0.3
				c0.1-0.1,0.2-0.1,0.3,0c0.1,0.1,0.1,0.1,0.1,0.3v3l3.7-2.2v-3c0-0.1,0-0.3,0.1-0.4c0.1-0.2,0.2-0.3,0.3-0.3s0.2-0.1,0.3,0
				c0.1,0.1,0.1,0.2,0.1,0.3v7c0,0.1,0,0.3-0.1,0.4c-0.1,0.2-0.2,0.3-0.3,0.3s-0.2,0.1-0.3,0c-0.1,0-0.1-0.1-0.1-0.3v-3l-3.7,2.2v3
				c0,0.1,0,0.3-0.1,0.4c-0.1,0.1-0.2,0.3-0.3,0.3C221.8,164.2,221.7,164.2,221.6,164.2z"/>
			<path class="st27" d="M230.6,159c-0.1,0-0.1-0.1-0.1-0.3v-6.5l-2,1.2c-0.1,0.1-0.2,0.1-0.3,0c-0.1,0-0.1-0.1-0.1-0.3
				s0-0.3,0.1-0.4c0.1-0.1,0.2-0.2,0.3-0.3l4.9-2.8c0.1-0.1,0.2-0.1,0.3,0c0.1,0,0.1,0.1,0.1,0.3s0,0.3-0.1,0.4
				c-0.1,0.1-0.2,0.2-0.3,0.3l-2,1.2v6.5c0,0.1,0,0.3-0.1,0.4c-0.1,0.2-0.2,0.3-0.3,0.3S230.7,159,230.6,159z"/>
		</g>
		<g class="st26">
			<path class="st4" d="M173,210.4c-0.1,0-0.1-0.1-0.1-0.3v-6.9c0-0.1,0-0.3,0.1-0.4c0.1-0.2,0.2-0.3,0.3-0.3l2.3-1.3
				c0.7-0.4,1.2-0.5,1.6-0.4c0.4,0.1,0.6,0.5,0.6,1.2c0,0.4-0.1,0.9-0.3,1.3c-0.2,0.4-0.4,0.7-0.7,1.1c0.4-0.1,0.7,0,1,0.1
				c0.3,0.2,0.4,0.5,0.4,1c0,0.7-0.2,1.4-0.6,2c-0.4,0.6-1,1.2-1.9,1.7l-2.4,1.4C173.2,210.5,173.1,210.5,173,210.4z M175.4,204.7
				c0.6-0.3,1-0.7,1.2-1.1c0.2-0.4,0.4-0.8,0.4-1.2c0-0.4-0.1-0.6-0.4-0.6c-0.3-0.1-0.6,0-1,0.3l-1.8,1v2.5L175.4,204.7z
				 M175.6,208.1c0.6-0.4,1.1-0.7,1.4-1.1c0.3-0.4,0.4-0.8,0.4-1.2c0-0.9-0.6-1-1.7-0.3l-1.9,1.1v2.6L175.6,208.1z"/>
		</g>
		<g class="st26">
			<path class="st27" d="M181.1,205.5c-0.5,0-0.9-0.3-1.2-0.8c-0.3-0.5-0.4-1.1-0.4-1.9c0-0.8,0.2-1.6,0.4-2.4
				c0.3-0.8,0.7-1.5,1.2-2.1c0.5-0.6,1.1-1.2,1.8-1.6c0.7-0.4,1.3-0.6,1.8-0.5s0.9,0.3,1.2,0.8s0.4,1.1,0.4,1.9
				c0,0.8-0.2,1.6-0.4,2.4s-0.7,1.5-1.2,2.1s-1.1,1.2-1.8,1.6C182.2,205.4,181.6,205.5,181.1,205.5z M184.3,202.8
				c0.4-0.5,0.7-1,0.9-1.6c0.2-0.6,0.3-1.2,0.3-1.8s-0.1-1.1-0.3-1.4s-0.5-0.6-0.9-0.6c-0.4,0-0.8,0.1-1.4,0.4
				c-0.5,0.3-1,0.7-1.4,1.2s-0.7,1-0.9,1.6c-0.2,0.6-0.3,1.2-0.3,1.8s0.1,1.1,0.3,1.4c0.2,0.4,0.5,0.6,0.9,0.6
				c0.4,0.1,0.8-0.1,1.4-0.4C183.4,203.7,183.9,203.3,184.3,202.8z"/>
			<path class="st27" d="M189.1,200.9c-0.5,0-0.9-0.3-1.2-0.8c-0.3-0.5-0.4-1.1-0.4-1.9c0-0.8,0.2-1.6,0.4-2.4
				c0.3-0.8,0.7-1.5,1.2-2.1c0.5-0.6,1.1-1.2,1.8-1.6c0.7-0.4,1.3-0.6,1.8-0.5c0.5,0.1,0.9,0.3,1.2,0.8s0.4,1.1,0.4,1.9
				c0,0.8-0.2,1.6-0.4,2.4s-0.7,1.5-1.2,2.1c-0.5,0.6-1.1,1.2-1.8,1.6C190.2,200.7,189.6,200.9,189.1,200.9z M192.3,198.2
				c0.4-0.5,0.7-1,0.9-1.6c0.2-0.6,0.3-1.2,0.3-1.8s-0.1-1.1-0.3-1.4c-0.2-0.4-0.5-0.6-0.9-0.6c-0.4,0-0.8,0.1-1.4,0.4
				c-0.5,0.3-1,0.7-1.4,1.2c-0.4,0.5-0.7,1-0.9,1.6c-0.2,0.6-0.3,1.2-0.3,1.8s0.1,1.1,0.3,1.4c0.2,0.4,0.5,0.6,0.9,0.6
				c0.4,0.1,0.8-0.1,1.4-0.4C191.5,199.1,191.9,198.7,192.3,198.2z"/>
			<path class="st27" d="M196,197.2c-0.1,0-0.1-0.1-0.1-0.3v-7c0-0.1,0-0.3,0.1-0.4c0.1-0.2,0.2-0.3,0.3-0.3s0.2-0.1,0.3,0
				c0.1,0.1,0.1,0.2,0.1,0.3v3.6l3.4-5.9c0.1-0.2,0.2-0.3,0.3-0.4c0.1-0.1,0.2-0.1,0.3,0c0.1,0,0.1,0.1,0.1,0.3c0,0.2,0,0.3-0.1,0.4
				l-2.3,3.9l2.6,2.3c0.1,0.1,0.1,0.2,0.1,0.3c0,0.1,0,0.3-0.1,0.4c-0.1,0.1-0.2,0.3-0.3,0.3c-0.2,0.1-0.3,0.1-0.4,0l-2.5-2.3
				l-1.1,2v2.1c0,0.1,0,0.3-0.1,0.4c-0.1,0.2-0.2,0.3-0.3,0.3S196.1,197.2,196,197.2z"/>
			<path class="st27" d="M204.9,191.7c-0.1,0-0.1,0-0.2-0.1c-0.1-0.1-0.1-0.1-0.1-0.2c0-0.1,0-0.3,0.1-0.4c0.1-0.1,0.2-0.2,0.3-0.3
				c0.1,0,0.1-0.1,0.2-0.1c0.6,0,1.3-0.3,1.9-0.7c1.2-0.7,1.7-1.4,1.7-2.3c0-0.2-0.1-0.4-0.2-0.4c-0.1-0.1-0.3-0.1-0.5,0
				c-0.2,0-0.5,0.1-0.9,0.2c-0.5,0.1-1,0.2-1.3,0.3s-0.6,0-0.8-0.2c-0.2-0.2-0.4-0.5-0.4-1c0-0.4,0.1-0.9,0.3-1.4
				c0.2-0.5,0.5-0.9,0.9-1.3s0.8-0.8,1.4-1.1c0.7-0.4,1.4-0.7,2-0.8c0.2,0,0.3,0.1,0.3,0.3c0,0.1,0,0.3-0.1,0.4s-0.2,0.2-0.3,0.3
				c0,0-0.1,0-0.2,0c-0.5,0.1-1,0.3-1.6,0.6c-0.5,0.3-0.9,0.7-1.3,1.1c-0.3,0.4-0.5,0.8-0.5,1.2c0,0.3,0.1,0.5,0.2,0.5
				c0.2,0.1,0.3,0.1,0.6,0.1c0.2,0,0.6-0.1,1-0.2c0.5-0.2,0.9-0.3,1.3-0.3c0.3,0,0.6,0,0.8,0.2c0.2,0.2,0.3,0.5,0.3,1
				c0,0.4-0.1,0.9-0.3,1.3c-0.2,0.5-0.5,0.9-0.9,1.3c-0.4,0.4-0.8,0.8-1.3,1C206.4,191.4,205.6,191.7,204.9,191.7z"/>
			<path class="st27" d="M211.3,188.4c-0.1,0-0.1-0.1-0.1-0.3v-7c0-0.1,0-0.3,0.1-0.4c0.1-0.2,0.2-0.3,0.3-0.3s0.2-0.1,0.3,0
				c0.1,0.1,0.1,0.1,0.1,0.3v7c0,0.1,0,0.3-0.1,0.4c-0.1,0.2-0.2,0.3-0.3,0.3S211.4,188.4,211.3,188.4z"/>
			<path class="st27" d="M215.2,185.8c-0.5,0-0.9-0.3-1.2-0.7c-0.3-0.5-0.4-1.1-0.4-1.9c0-0.8,0.2-1.6,0.5-2.4s0.7-1.5,1.2-2.2
				c0.5-0.6,1.1-1.2,1.7-1.5c0.5-0.3,1-0.5,1.3-0.6c0.4-0.1,0.8-0.1,1.1,0c0.1,0,0.1,0,0.1,0.1c0,0.1,0.1,0.1,0.1,0.2
				c0,0.1,0,0.3-0.1,0.4c-0.1,0.1-0.2,0.2-0.3,0.3c-0.1,0-0.1,0.1-0.2,0.1c-0.3,0-0.6,0-0.9,0.1s-0.6,0.2-1,0.4
				c-0.5,0.3-1,0.7-1.4,1.1s-0.7,1-0.9,1.6c-0.2,0.6-0.3,1.2-0.3,1.9c0,0.6,0.1,1.1,0.3,1.4c0.2,0.3,0.5,0.5,0.9,0.6
				c0.4,0,0.9-0.1,1.4-0.4c0.6-0.4,1.2-0.9,1.7-1.5v-2.1l-1.6,0.9c-0.1,0.1-0.2,0.1-0.3,0c-0.1,0-0.1-0.1-0.1-0.3s0-0.3,0.1-0.4
				c0.1-0.1,0.2-0.2,0.3-0.3l1.9-1.1c0.1-0.1,0.2-0.1,0.3,0c0.1,0.1,0.1,0.2,0.1,0.3v2.6c0,0.2,0,0.3-0.1,0.5s-0.2,0.3-0.3,0.4
				c-0.7,0.9-1.5,1.5-2.3,1.9C216.3,185.7,215.7,185.8,215.2,185.8z"/>
			<path class="st27" d="M221.6,182.4c-0.1,0-0.1-0.1-0.1-0.3v-7c0-0.1,0-0.3,0.1-0.4c0.1-0.2,0.2-0.3,0.3-0.3
				c0.1-0.1,0.2-0.1,0.3,0c0.1,0.1,0.1,0.1,0.1,0.3v3l3.7-2.2v-3c0-0.1,0-0.3,0.1-0.4c0.1-0.2,0.2-0.3,0.3-0.3s0.2-0.1,0.3,0
				c0.1,0.1,0.1,0.2,0.1,0.3v7c0,0.1,0,0.3-0.1,0.4c-0.1,0.2-0.2,0.3-0.3,0.3s-0.2,0.1-0.3,0c-0.1,0-0.1-0.1-0.1-0.3v-3l-3.7,2.2v3
				c0,0.1,0,0.3-0.1,0.4c-0.1,0.1-0.2,0.3-0.3,0.3C221.8,182.5,221.7,182.5,221.6,182.4z"/>
			<path class="st27" d="M230.6,177.2c-0.1,0-0.1-0.1-0.1-0.3v-6.5l-2,1.2c-0.1,0.1-0.2,0.1-0.3,0c-0.1,0-0.1-0.1-0.1-0.3
				s0-0.3,0.1-0.4c0.1-0.1,0.2-0.2,0.3-0.3l4.9-2.8c0.1-0.1,0.2-0.1,0.3,0c0.1,0,0.1,0.1,0.1,0.3s0,0.3-0.1,0.4
				c-0.1,0.1-0.2,0.2-0.3,0.3l-2,1.2v6.5c0,0.1,0,0.3-0.1,0.4c-0.1,0.2-0.2,0.3-0.3,0.3S230.7,177.3,230.6,177.2z"/>
		</g>
		<g class="st26">
			<path class="st4" d="M173,228.7c-0.1,0-0.1-0.1-0.1-0.3v-6.9c0-0.1,0-0.3,0.1-0.4c0.1-0.2,0.2-0.3,0.3-0.3l2.3-1.3
				c0.7-0.4,1.2-0.5,1.6-0.4c0.4,0.1,0.6,0.5,0.6,1.2c0,0.4-0.1,0.9-0.3,1.3c-0.2,0.4-0.4,0.7-0.7,1.1c0.4-0.1,0.7,0,1,0.1
				c0.3,0.2,0.4,0.5,0.4,1c0,0.7-0.2,1.4-0.6,2c-0.4,0.6-1,1.2-1.9,1.7l-2.4,1.4C173.2,228.7,173.1,228.7,173,228.7z M175.4,222.9
				c0.6-0.3,1-0.7,1.2-1.1c0.2-0.4,0.4-0.8,0.4-1.2c0-0.4-0.1-0.6-0.4-0.6c-0.3-0.1-0.6,0-1,0.3l-1.8,1v2.5L175.4,222.9z
				 M175.6,226.3c0.6-0.4,1.1-0.7,1.4-1.1c0.3-0.4,0.4-0.8,0.4-1.2c0-0.9-0.6-1-1.7-0.3l-1.9,1.1v2.6L175.6,226.3z"/>
		</g>
		<g class="st26">
			<path class="st27" d="M181.1,223.7c-0.5,0-0.9-0.3-1.2-0.8c-0.3-0.5-0.4-1.1-0.4-1.9c0-0.8,0.2-1.6,0.4-2.4
				c0.3-0.8,0.7-1.5,1.2-2.1c0.5-0.6,1.1-1.2,1.8-1.6c0.7-0.4,1.3-0.6,1.8-0.5s0.9,0.3,1.2,0.8s0.4,1.1,0.4,1.9
				c0,0.8-0.2,1.6-0.4,2.4s-0.7,1.5-1.2,2.1s-1.1,1.2-1.8,1.6C182.2,223.6,181.6,223.8,181.1,223.7z M184.3,221
				c0.4-0.5,0.7-1,0.9-1.6c0.2-0.6,0.3-1.2,0.3-1.8s-0.1-1.1-0.3-1.4s-0.5-0.6-0.9-0.6c-0.4,0-0.8,0.1-1.4,0.4
				c-0.5,0.3-1,0.7-1.4,1.2s-0.7,1-0.9,1.6c-0.2,0.6-0.3,1.2-0.3,1.8s0.1,1.1,0.3,1.4c0.2,0.4,0.5,0.6,0.9,0.6
				c0.4,0.1,0.8-0.1,1.4-0.4C183.4,221.9,183.9,221.5,184.3,221z"/>
			<path class="st27" d="M189.1,219.1c-0.5,0-0.9-0.3-1.2-0.8c-0.3-0.5-0.4-1.1-0.4-1.9c0-0.8,0.2-1.6,0.4-2.4
				c0.3-0.8,0.7-1.5,1.2-2.1c0.5-0.6,1.1-1.2,1.8-1.6c0.7-0.4,1.3-0.6,1.8-0.5c0.5,0.1,0.9,0.3,1.2,0.8s0.4,1.1,0.4,1.9
				c0,0.8-0.2,1.6-0.4,2.4s-0.7,1.5-1.2,2.1c-0.5,0.6-1.1,1.2-1.8,1.6C190.2,219,189.6,219.2,189.1,219.1z M192.3,216.4
				c0.4-0.5,0.7-1,0.9-1.6c0.2-0.6,0.3-1.2,0.3-1.8s-0.1-1.1-0.3-1.4c-0.2-0.4-0.5-0.6-0.9-0.6c-0.4,0-0.8,0.1-1.4,0.4
				c-0.5,0.3-1,0.7-1.4,1.2c-0.4,0.5-0.7,1-0.9,1.6c-0.2,0.6-0.3,1.2-0.3,1.8s0.1,1.1,0.3,1.4c0.2,0.4,0.5,0.6,0.9,0.6
				c0.4,0.1,0.8-0.1,1.4-0.4C191.5,217.3,191.9,216.9,192.3,216.4z"/>
			<path class="st27" d="M196,215.4c-0.1,0-0.1-0.1-0.1-0.3v-7c0-0.1,0-0.3,0.1-0.4c0.1-0.2,0.2-0.3,0.3-0.3s0.2-0.1,0.3,0
				c0.1,0.1,0.1,0.2,0.1,0.3v3.6l3.4-5.9c0.1-0.2,0.2-0.3,0.3-0.4c0.1-0.1,0.2-0.1,0.3,0c0.1,0,0.1,0.1,0.1,0.3c0,0.2,0,0.3-0.1,0.4
				l-2.3,3.9l2.6,2.3c0.1,0.1,0.1,0.2,0.1,0.3c0,0.1,0,0.3-0.1,0.4c-0.1,0.1-0.2,0.3-0.3,0.3c-0.2,0.1-0.3,0.1-0.4,0l-2.5-2.3
				l-1.1,2v2.1c0,0.1,0,0.3-0.1,0.4c-0.1,0.2-0.2,0.3-0.3,0.3S196.1,215.5,196,215.4z"/>
			<path class="st27" d="M204.9,210c-0.1,0-0.1,0-0.2-0.1c-0.1-0.1-0.1-0.1-0.1-0.2c0-0.1,0-0.3,0.1-0.4c0.1-0.1,0.2-0.2,0.3-0.3
				c0.1,0,0.1-0.1,0.2-0.1c0.6,0,1.3-0.3,1.9-0.7c1.2-0.7,1.7-1.4,1.7-2.3c0-0.2-0.1-0.4-0.2-0.4c-0.1-0.1-0.3-0.1-0.5,0
				c-0.2,0-0.5,0.1-0.9,0.2c-0.5,0.1-1,0.2-1.3,0.3s-0.6,0-0.8-0.2c-0.2-0.2-0.4-0.5-0.4-1c0-0.4,0.1-0.9,0.3-1.4
				c0.2-0.5,0.5-0.9,0.9-1.3s0.8-0.8,1.4-1.1c0.7-0.4,1.4-0.7,2-0.8c0.2,0,0.3,0.1,0.3,0.3c0,0.1,0,0.3-0.1,0.4s-0.2,0.2-0.3,0.3
				c0,0-0.1,0-0.2,0c-0.5,0.1-1,0.3-1.6,0.6c-0.5,0.3-0.9,0.7-1.3,1.1c-0.3,0.4-0.5,0.8-0.5,1.2c0,0.3,0.1,0.5,0.2,0.5
				c0.2,0.1,0.3,0.1,0.6,0.1c0.2,0,0.6-0.1,1-0.2c0.5-0.2,0.9-0.3,1.3-0.3c0.3,0,0.6,0,0.8,0.2c0.2,0.2,0.3,0.5,0.3,1
				c0,0.4-0.1,0.9-0.3,1.3c-0.2,0.5-0.5,0.9-0.9,1.3c-0.4,0.4-0.8,0.8-1.3,1C206.4,209.6,205.6,209.9,204.9,210z"/>
			<path class="st27" d="M211.3,206.6c-0.1,0-0.1-0.1-0.1-0.3v-7c0-0.1,0-0.3,0.1-0.4c0.1-0.2,0.2-0.3,0.3-0.3s0.2-0.1,0.3,0
				c0.1,0.1,0.1,0.1,0.1,0.3v7c0,0.1,0,0.3-0.1,0.4c-0.1,0.2-0.2,0.3-0.3,0.3S211.4,206.7,211.3,206.6z"/>
			<path class="st27" d="M215.2,204c-0.5,0-0.9-0.3-1.2-0.7c-0.3-0.5-0.4-1.1-0.4-1.9c0-0.8,0.2-1.6,0.5-2.4s0.7-1.5,1.2-2.2
				c0.5-0.6,1.1-1.2,1.7-1.5c0.5-0.3,1-0.5,1.3-0.6c0.4-0.1,0.8-0.1,1.1,0c0.1,0,0.1,0,0.1,0.1c0,0.1,0.1,0.1,0.1,0.2
				c0,0.1,0,0.3-0.1,0.4c-0.1,0.1-0.2,0.2-0.3,0.3c-0.1,0-0.1,0.1-0.2,0.1c-0.3,0-0.6,0-0.9,0.1s-0.6,0.2-1,0.4
				c-0.5,0.3-1,0.7-1.4,1.1s-0.7,1-0.9,1.6c-0.2,0.6-0.3,1.2-0.3,1.9c0,0.6,0.1,1.1,0.3,1.4c0.2,0.3,0.5,0.5,0.9,0.6
				c0.4,0,0.9-0.1,1.4-0.4c0.6-0.4,1.2-0.9,1.7-1.5v-2.1l-1.6,0.9c-0.1,0.1-0.2,0.1-0.3,0c-0.1,0-0.1-0.1-0.1-0.3s0-0.3,0.1-0.4
				c0.1-0.1,0.2-0.2,0.3-0.3l1.9-1.1c0.1-0.1,0.2-0.1,0.3,0c0.1,0.1,0.1,0.2,0.1,0.3v2.6c0,0.2,0,0.3-0.1,0.5s-0.2,0.3-0.3,0.4
				c-0.7,0.9-1.5,1.5-2.3,1.9C216.3,203.9,215.7,204.1,215.2,204z"/>
			<path class="st27" d="M221.6,200.7c-0.1,0-0.1-0.1-0.1-0.3v-7c0-0.1,0-0.3,0.1-0.4c0.1-0.2,0.2-0.3,0.3-0.3
				c0.1-0.1,0.2-0.1,0.3,0c0.1,0.1,0.1,0.1,0.1,0.3v3l3.7-2.2v-3c0-0.1,0-0.3,0.1-0.4c0.1-0.2,0.2-0.3,0.3-0.3s0.2-0.1,0.3,0
				c0.1,0.1,0.1,0.2,0.1,0.3v7c0,0.1,0,0.3-0.1,0.4c-0.1,0.2-0.2,0.3-0.3,0.3s-0.2,0.1-0.3,0c-0.1,0-0.1-0.1-0.1-0.3v-3l-3.7,2.2v3
				c0,0.1,0,0.3-0.1,0.4c-0.1,0.1-0.2,0.3-0.3,0.3C221.8,200.7,221.7,200.7,221.6,200.7z"/>
			<path class="st27" d="M230.6,195.5c-0.1,0-0.1-0.1-0.1-0.3v-6.5l-2,1.2c-0.1,0.1-0.2,0.1-0.3,0c-0.1,0-0.1-0.1-0.1-0.3
				s0-0.3,0.1-0.4c0.1-0.1,0.2-0.2,0.3-0.3l4.9-2.8c0.1-0.1,0.2-0.1,0.3,0c0.1,0,0.1,0.1,0.1,0.3s0,0.3-0.1,0.4
				c-0.1,0.1-0.2,0.2-0.3,0.3l-2,1.2v6.5c0,0.1,0,0.3-0.1,0.4c-0.1,0.2-0.2,0.3-0.3,0.3S230.7,195.5,230.6,195.5z"/>
		</g>
		<g>
			<g>
				<g>
					<path class="st27" d="M173.2,192.5c-0.1,0-0.1,0-0.2,0c-0.1-0.1-0.2-0.2-0.2-0.4l-0.1-7c0-0.2,0-0.3,0.1-0.5s0.2-0.3,0.3-0.4
						l2.4-1.4c0.5-0.3,1-0.5,1.4-0.5c0.1,0,0.3,0,0.4,0.1c0.4,0.2,0.6,0.6,0.6,1.2c0,0.5-0.1,0.9-0.3,1.3c-0.2,0.3-0.3,0.6-0.6,0.9
						c0.1,0,0.1,0,0.2,0c0.2,0,0.5,0.1,0.6,0.2c0.3,0.2,0.4,0.5,0.4,1.1c0,0.7-0.2,1.4-0.6,2.1c-0.4,0.6-1.1,1.2-2,1.8L173.2,192.5
						C173.4,192.4,173.3,192.5,173.2,192.5z M177,187c-0.3,0-0.7,0.2-1.2,0.4l-1.5,0.9c-0.2,0.1-0.3,0.4-0.3,0.6v1.7
						c0,0.1,0,0.2,0.1,0.2h0.1l1.5-0.9c0.6-0.4,1.1-0.7,1.3-1.1c0.3-0.4,0.4-0.8,0.4-1.2C177.4,187,177.2,187,177,187z M176.6,183.7
						c-0.2,0-0.5,0.1-0.9,0.3l-1.4,0.8c-0.2,0.1-0.3,0.4-0.3,0.6v1.6c0,0.1,0,0.2,0.1,0.2h0.1l1.3-0.7c0.6-0.3,1-0.7,1.2-1
						c0.2-0.4,0.3-0.7,0.3-1.1c0-0.3-0.1-0.5-0.3-0.6C176.6,183.7,176.6,183.7,176.6,183.7z"/>
					<path class="st3" d="M177,182.5c0.1,0,0.2,0,0.3,0.1c0.4,0.1,0.6,0.5,0.6,1.2c0,0.4-0.1,0.9-0.3,1.3c-0.2,0.4-0.4,0.8-0.7,1.1
						c0.1,0,0.3,0,0.4,0c0.2,0,0.4,0.1,0.6,0.2c0.3,0.2,0.4,0.5,0.4,1c0,0.7-0.2,1.4-0.6,2s-1.1,1.2-1.9,1.7l-2.4,1.4
						c-0.1,0-0.1,0.1-0.2,0.1H173c-0.1,0-0.1-0.1-0.1-0.3l-0.1-7c0-0.1,0-0.3,0.1-0.4c0.1-0.2,0.2-0.3,0.3-0.3l2.4-1.4
						C176.2,182.6,176.7,182.5,177,182.5 M174.1,187.3c0.1,0,0.1,0,0.2-0.1l1.3-0.7c0.6-0.3,1-0.7,1.2-1.1c0.2-0.4,0.4-0.8,0.4-1.2
						s-0.1-0.6-0.4-0.6c-0.1,0-0.1,0-0.2,0c-0.2,0-0.5,0.1-0.9,0.3l-1.4,0.8c-0.2,0.1-0.4,0.4-0.4,0.7v1.6
						C173.9,187.2,173.9,187.3,174.1,187.3 M174.1,190.9c0.1,0,0.1,0,0.2-0.1l1.5-0.9c0.6-0.4,1.1-0.8,1.4-1.1s0.4-0.8,0.4-1.2
						c0-0.5-0.2-0.7-0.6-0.7c-0.3,0-0.7,0.2-1.2,0.5l-1.5,0.9c-0.2,0.1-0.4,0.4-0.4,0.7v1.7C173.9,190.8,174,190.9,174.1,190.9
						 M177,182.3c-0.4,0-0.8,0.2-1.4,0.5l-2.4,1.4c-0.1,0.1-0.3,0.2-0.4,0.4s-0.1,0.4-0.1,0.5l0.1,7c0,0.3,0.1,0.4,0.2,0.4
						s0.1,0,0.2,0s0.2,0,0.3-0.1l2.4-1.4c0.9-0.5,1.6-1.1,2-1.8s0.6-1.4,0.6-2.1c0-0.5-0.2-0.9-0.5-1.1c-0.2-0.1-0.4-0.2-0.7-0.2
						l0,0c0.2-0.2,0.3-0.5,0.5-0.8c0.2-0.4,0.3-0.9,0.3-1.3c0-0.7-0.2-1.1-0.7-1.3C177.3,182.3,177.2,182.3,177,182.3L177,182.3z
						 M174.1,187.2c-0.1,0-0.1-0.1-0.1-0.1v-1.6c0-0.2,0.1-0.4,0.3-0.5l1.4-0.8c0.3-0.2,0.6-0.3,0.8-0.3h0.1c0.1,0,0.3,0.1,0.3,0.5
						s-0.1,0.7-0.3,1.1c-0.2,0.3-0.6,0.7-1.2,1L174.1,187.2L174.1,187.2L174.1,187.2z M174.1,190.7c-0.1,0-0.1-0.1-0.1-0.1v-1.7
						c0-0.2,0.1-0.4,0.3-0.5l1.5-0.9c0.5-0.3,0.9-0.4,1.1-0.4c0.1,0,0.4,0,0.4,0.6c0,0.4-0.1,0.8-0.4,1.1c-0.3,0.4-0.7,0.7-1.3,1.1
						L174.1,190.7L174.1,190.7L174.1,190.7z"/>
				</g>
			</g>
			<path class="st4" d="M173.9,192v1.9c0,0,0,0,0.1,0l0.5-1.1c0,0,0-0.1,0.1,0l0.5,0.6c0,0,0.1,0,0.1-0.1v-1.9L173.9,192z"/>
		</g>
		<g>
			<g>
				<g>
					<path class="st27" d="M173.2,210.5c-0.1,0-0.1,0-0.2,0c-0.1-0.1-0.2-0.2-0.2-0.4l-0.1-7c0-0.2,0-0.3,0.1-0.5s0.2-0.3,0.3-0.4
						l2.4-1.4c0.5-0.3,1-0.5,1.4-0.5c0.1,0,0.3,0,0.4,0.1c0.4,0.2,0.6,0.6,0.6,1.2c0,0.5-0.1,0.9-0.3,1.3c-0.2,0.3-0.3,0.6-0.6,0.9
						c0.1,0,0.1,0,0.2,0c0.2,0,0.5,0.1,0.6,0.2c0.3,0.2,0.4,0.5,0.4,1.1c0,0.7-0.2,1.4-0.6,2.1c-0.4,0.6-1.1,1.2-2,1.8L173.2,210.5
						C173.4,210.5,173.3,210.5,173.2,210.5z M177,205c-0.3,0-0.7,0.2-1.2,0.4l-1.5,0.9c-0.2,0.1-0.3,0.4-0.3,0.6v1.7
						c0,0.1,0,0.2,0.1,0.2h0.1l1.5-0.9c0.6-0.4,1.1-0.7,1.3-1.1c0.3-0.4,0.4-0.8,0.4-1.2C177.4,205.1,177.2,205,177,205z
						 M176.6,201.8c-0.2,0-0.5,0.1-0.9,0.3l-1.4,0.8c-0.2,0.1-0.3,0.4-0.3,0.6v1.6c0,0.1,0,0.2,0.1,0.2h0.1l1.3-0.7
						c0.6-0.3,1-0.7,1.2-1c0.2-0.4,0.3-0.7,0.3-1.1c0-0.3-0.1-0.5-0.3-0.6C176.6,201.8,176.6,201.8,176.6,201.8z"/>
					<path class="st3" d="M177,200.5c0.1,0,0.2,0,0.3,0.1c0.4,0.1,0.6,0.5,0.6,1.2c0,0.4-0.1,0.9-0.3,1.3c-0.2,0.4-0.4,0.8-0.7,1.1
						c0.1,0,0.3,0,0.4,0c0.2,0,0.4,0.1,0.6,0.2c0.3,0.2,0.4,0.5,0.4,1c0,0.7-0.2,1.4-0.6,2s-1.1,1.2-1.9,1.7l-2.4,1.4
						c-0.1,0-0.1,0.1-0.2,0.1H173c-0.1,0-0.1-0.1-0.1-0.3l-0.1-7c0-0.1,0-0.3,0.1-0.4c0.1-0.2,0.2-0.3,0.3-0.3l2.4-1.4
						C176.2,200.7,176.7,200.5,177,200.5 M174.1,205.4c0.1,0,0.1,0,0.2-0.1l1.3-0.7c0.6-0.3,1-0.7,1.2-1.1c0.2-0.4,0.4-0.8,0.4-1.2
						s-0.1-0.6-0.4-0.6c-0.1,0-0.1,0-0.2,0c-0.2,0-0.5,0.1-0.9,0.3l-1.4,0.8c-0.2,0.1-0.4,0.4-0.4,0.7v1.6
						C173.9,205.3,173.9,205.4,174.1,205.4 M174.1,209c0.1,0,0.1,0,0.2-0.1l1.5-0.9c0.6-0.4,1.1-0.8,1.4-1.1s0.4-0.8,0.4-1.2
						c0-0.5-0.2-0.7-0.6-0.7c-0.3,0-0.7,0.2-1.2,0.5l-1.5,0.9c-0.2,0.1-0.4,0.4-0.4,0.7v1.7C173.9,208.9,174,209,174.1,209
						 M177,200.4c-0.4,0-0.8,0.2-1.4,0.5l-2.4,1.4c-0.1,0.1-0.3,0.2-0.4,0.4s-0.1,0.4-0.1,0.5l0.1,7c0,0.3,0.1,0.4,0.2,0.4
						s0.1,0,0.2,0s0.2,0,0.3-0.1l2.4-1.4c0.9-0.5,1.6-1.1,2-1.8s0.6-1.4,0.6-2.1c0-0.5-0.2-0.9-0.5-1.1c-0.2-0.1-0.4-0.2-0.7-0.2
						l0,0c0.2-0.2,0.3-0.5,0.5-0.8c0.2-0.4,0.3-0.9,0.3-1.3c0-0.7-0.2-1.1-0.7-1.3C177.3,200.4,177.2,200.4,177,200.4L177,200.4z
						 M174.1,205.3c-0.1,0-0.1-0.1-0.1-0.1v-1.6c0-0.2,0.1-0.4,0.3-0.5l1.4-0.8c0.3-0.2,0.6-0.3,0.8-0.3h0.1c0.1,0,0.3,0.1,0.3,0.5
						s-0.1,0.7-0.3,1.1c-0.2,0.3-0.6,0.7-1.2,1L174.1,205.3C174.1,205.2,174.1,205.3,174.1,205.3L174.1,205.3z M174.1,208.8
						c-0.1,0-0.1-0.1-0.1-0.1V207c0-0.2,0.1-0.4,0.3-0.5l1.5-0.9c0.5-0.3,0.9-0.4,1.1-0.4c0.1,0,0.4,0,0.4,0.6
						c0,0.4-0.1,0.8-0.4,1.1c-0.3,0.4-0.7,0.7-1.3,1.1L174.1,208.8L174.1,208.8L174.1,208.8z"/>
				</g>
			</g>
			<path class="st4" d="M173.9,210.1v1.9c0,0,0,0,0.1,0l0.5-1.1c0,0,0-0.1,0.1,0l0.5,0.6c0,0,0.1,0,0.1-0.1v-1.9L173.9,210.1z"/>
		</g>
		<g>
			<g>
				<g>
					<path class="st27" d="M173.2,228.6c-0.1,0-0.1,0-0.2,0c-0.1-0.1-0.2-0.2-0.2-0.4l-0.1-7c0-0.2,0-0.3,0.1-0.5s0.2-0.3,0.3-0.4
						l2.4-1.4c0.5-0.3,1-0.5,1.4-0.5c0.1,0,0.3,0,0.4,0.1c0.4,0.2,0.6,0.6,0.6,1.2c0,0.5-0.1,0.9-0.3,1.3c-0.2,0.3-0.3,0.6-0.6,0.9
						c0.1,0,0.1,0,0.2,0c0.2,0,0.5,0.1,0.6,0.2c0.3,0.2,0.4,0.5,0.4,1.1c0,0.7-0.2,1.4-0.6,2.1c-0.4,0.6-1.1,1.2-2,1.8L173.2,228.6
						C173.4,228.6,173.3,228.6,173.2,228.6z M177,223.1c-0.3,0-0.7,0.2-1.2,0.4l-1.5,0.9c-0.2,0.1-0.3,0.4-0.3,0.6v1.7
						c0,0.1,0,0.2,0.1,0.2h0.1l1.5-0.9c0.6-0.4,1.1-0.7,1.3-1.1c0.3-0.4,0.4-0.8,0.4-1.2C177.4,223.2,177.2,223.1,177,223.1z
						 M176.6,219.9c-0.2,0-0.5,0.1-0.9,0.3l-1.4,0.8c-0.2,0.1-0.3,0.4-0.3,0.6v1.6c0,0.1,0,0.2,0.1,0.2h0.1l1.3-0.7
						c0.6-0.3,1-0.7,1.2-1c0.2-0.4,0.3-0.7,0.3-1.1c0-0.3-0.1-0.5-0.3-0.6C176.6,219.9,176.6,219.9,176.6,219.9z"/>
					<path class="st3" d="M177,218.6c0.1,0,0.2,0,0.3,0.1c0.4,0.1,0.6,0.5,0.6,1.2c0,0.4-0.1,0.9-0.3,1.3c-0.2,0.4-0.4,0.8-0.7,1.1
						c0.1,0,0.3,0,0.4,0c0.2,0,0.4,0.1,0.6,0.2c0.3,0.2,0.4,0.5,0.4,1c0,0.7-0.2,1.4-0.6,2s-1.1,1.2-1.9,1.7l-2.4,1.4
						c-0.1,0-0.1,0.1-0.2,0.1H173c-0.1,0-0.1-0.1-0.1-0.3l-0.1-7c0-0.1,0-0.3,0.1-0.4c0.1-0.2,0.2-0.3,0.3-0.3l2.4-1.4
						C176.2,218.8,176.7,218.6,177,218.6 M174.1,223.5c0.1,0,0.1,0,0.2-0.1l1.3-0.7c0.6-0.3,1-0.7,1.2-1.1s0.4-0.8,0.4-1.2
						c0-0.4-0.1-0.6-0.4-0.6c-0.1,0-0.1,0-0.2,0c-0.2,0-0.5,0.1-0.9,0.3l-1.4,0.8c-0.2,0.1-0.4,0.4-0.4,0.7v1.6
						C173.9,223.4,173.9,223.5,174.1,223.5 M174.1,227c0.1,0,0.1,0,0.2-0.1l1.5-0.9c0.6-0.4,1.1-0.8,1.4-1.1s0.4-0.8,0.4-1.2
						c0-0.5-0.2-0.7-0.6-0.7c-0.3,0-0.7,0.2-1.2,0.5l-1.5,0.9c-0.2,0.1-0.4,0.4-0.4,0.7v1.7C173.9,226.9,174,227,174.1,227
						 M177,218.5c-0.4,0-0.8,0.2-1.4,0.5l-2.4,1.4c-0.1,0.1-0.3,0.2-0.4,0.4c-0.1,0.2-0.1,0.4-0.1,0.5l0.1,7c0,0.3,0.1,0.4,0.2,0.4
						s0.1,0,0.2,0s0.2,0,0.3-0.1l2.4-1.4c0.9-0.5,1.6-1.1,2-1.8c0.4-0.7,0.6-1.4,0.6-2.1c0-0.5-0.2-0.9-0.5-1.1
						c-0.2-0.1-0.4-0.2-0.7-0.2l0,0c0.2-0.2,0.3-0.5,0.5-0.8c0.2-0.4,0.3-0.9,0.3-1.3c0-0.7-0.2-1.1-0.7-1.3
						C177.3,218.5,177.2,218.5,177,218.5L177,218.5z M174.1,223.3c-0.1,0-0.1-0.1-0.1-0.1v-1.6c0-0.2,0.1-0.4,0.3-0.5l1.4-0.8
						c0.3-0.2,0.6-0.3,0.8-0.3h0.1c0.1,0,0.3,0.1,0.3,0.5s-0.1,0.7-0.3,1.1c-0.2,0.3-0.6,0.7-1.2,1L174.1,223.3L174.1,223.3
						L174.1,223.3z M174.1,226.9c-0.1,0-0.1-0.1-0.1-0.1v-1.7c0-0.2,0.1-0.4,0.3-0.5l1.5-0.9c0.5-0.3,0.9-0.4,1.1-0.4
						c0.1,0,0.4,0,0.4,0.6c0,0.4-0.1,0.8-0.4,1.1c-0.3,0.4-0.7,0.7-1.3,1.1L174.1,226.9L174.1,226.9L174.1,226.9z"/>
				</g>
			</g>
			<path class="st4" d="M173.9,228.2v1.9c0,0,0,0,0.1,0l0.5-1.1c0,0,0-0.1,0.1,0l0.5,0.6c0,0,0.1,0,0.1-0.1v-1.9L173.9,228.2z"/>
		</g>
		<path class="st4" d="M158.4,166.5l0.1,12.7c0,0.3,0.3,0.6,0.4,0.4l3.2-3.9c0.1-0.1,0.3,0,0.4,0.2l3.4,7.6c0.1,0.3,0.4,0.4,0.4,0.1
			l-0.1-12.7L158.4,166.5z"/>
		<polygon class="st19" points="64.5,473.3 31,470.1 23.9,466 74.4,436.8 112.3,446.9 		"/>
		<polygon class="st19" points="159.5,416.2 126,413 120.3,410.3 170.8,381.1 207.3,389.8 		"/>
		<polygon class="st19" points="254.3,359 220.8,355.8 216.7,354.7 267.1,325.6 302,332.7 		"/>
		<g>
			<path class="st20" d="M64.5,401.5l51.2-30.6c0,0,0,64.9,0,67.5s0,4.3,0,4.3l-51.1,30.6C64.5,473.3,64.5,401.5,64.5,401.5z"/>
			<path class="st21" d="M115.7,370.9c0,0,1.5,2.9,3.5,4.1c2.2,1.3,6.3,1.8,6.3,1.8l-51.1,30.6l-9.9-5.9L115.7,370.9z"/>
			<line class="st28" x1="64.6" y1="401.7" x2="115.7" y2="370.9"/>
			<line class="st28" x1="66.3" y1="402.8" x2="116.8" y2="372.6"/>
			<line class="st28" x1="68.3" y1="404" x2="118.1" y2="374.2"/>
			<line class="st28" x1="70.3" y1="405.3" x2="120.1" y2="375.4"/>
			<line class="st28" x1="72.2" y1="406.5" x2="122.7" y2="376.2"/>
			
				<linearGradient id="SVGID_7_" gradientUnits="userSpaceOnUse" x1="73.3495" y1="2322.9419" x2="65.6636" y2="2247.8193" gradientTransform="matrix(1 0 0 1 0 -1844)">
				<stop  offset="1.803357e-02" style="stop-color:#AF4857"/>
				<stop  offset="0.3505" style="stop-color:#FF6473"/>
			</linearGradient>
			<polygon class="st29" points="74.4,479.2 64.5,473.3 64.5,401.5 74.4,407.4 			"/>
			
				<linearGradient id="SVGID_8_" gradientUnits="userSpaceOnUse" x1="114.2754" y1="2301.5483" x2="83.1852" y2="2237.6201" gradientTransform="matrix(1 0 0 1 0 -1844)">
				<stop  offset="0.1818" style="stop-color:#AF4857"/>
				<stop  offset="1" style="stop-color:#FF6473"/>
			</linearGradient>
			<path class="st30" d="M74.4,407.4l51.1-30.6c0,0,0,64.9,0,67.5s0,4.3,0,4.3l-51.1,30.6V407.4z"/>
			<g>
				<polygon class="st18" points="74.4,414.7 64.5,408.8 64.5,408.7 74.4,414.6 				"/>
			</g>
			<g>
				<polygon class="st18" points="74.4,427.5 64.5,421.6 64.5,421.4 74.4,427.4 				"/>
			</g>
			<g>
				<polygon class="st18" points="74.4,440.3 64.5,434.3 64.5,434.2 74.4,440.2 				"/>
			</g>
			<g>
				<polygon class="st18" points="74.4,453 64.5,447.1 64.5,447 74.4,452.9 				"/>
			</g>
			<g>
				<g>
					<g>
						<path class="st27" d="M70.6,421.3c-0.3,0-0.6-0.1-1-0.3l-1.7-0.9c-0.1-0.1-0.2-0.1-0.2-0.3c-0.1-0.1-0.1-0.3-0.1-0.4v-6
							c0-0.1,0-0.2,0.1-0.3c0,0,0.1-0.1,0.2-0.1H68l1.6,0.9c0.5,0.3,0.9,0.6,1.2,1.1c0.3,0.5,0.4,1,0.4,1.6c0,0.4-0.1,0.7-0.2,0.9
							c-0.1,0.2-0.2,0.3-0.4,0.3c0.2,0.3,0.5,0.6,0.6,0.9c0.2,0.4,0.3,0.8,0.3,1.2c0,0.6-0.1,1.1-0.5,1.3
							C70.9,421.3,70.7,421.3,70.6,421.3z M68.4,417.3C68.4,417.3,68.3,417.3,68.4,417.3c-0.1,0.1-0.1,0.1-0.1,0.2v1.5
							c0,0.2,0.1,0.4,0.2,0.5l1,0.6c0.3,0.2,0.6,0.3,0.7,0.3s0.1,0,0.2,0c0.2-0.1,0.2-0.3,0.2-0.6c0-0.7-0.4-1.3-1.2-1.8L68.4,417.3
							L68.4,417.3z M68.4,414.3C68.3,414.3,68.3,414.3,68.4,414.3c-0.1,0.1-0.1,0.1-0.1,0.2v1.4c0,0.2,0.1,0.4,0.2,0.5l0.9,0.5
							c0.3,0.1,0.5,0.2,0.6,0.2s0.1,0,0.2,0c0.1-0.1,0.2-0.3,0.2-0.6c0-0.3-0.1-0.6-0.3-0.9c-0.2-0.3-0.4-0.5-0.7-0.7L68.4,414.3
							L68.4,414.3z"/>
						<path class="st3" d="M67.8,413.1h0.1l1.6,0.9c0.5,0.3,0.9,0.6,1.2,1.1c0.3,0.5,0.4,1,0.4,1.5c0,0.4-0.1,0.7-0.2,0.9
							c-0.1,0.2-0.3,0.3-0.5,0.3c0.3,0.3,0.5,0.6,0.7,1s0.3,0.8,0.3,1.2c0,0.6-0.1,1-0.4,1.2c-0.1,0.1-0.2,0.1-0.4,0.1
							c-0.3,0-0.6-0.1-1-0.3l-1.7-0.9c-0.1,0-0.2-0.1-0.2-0.3c-0.1-0.1-0.1-0.2-0.1-0.4v-6c0-0.1,0-0.2,0.1-0.3
							C67.7,413.1,67.7,413.1,67.8,413.1 M70,417.1c0.1,0,0.1,0,0.2-0.1c0.2-0.1,0.2-0.3,0.2-0.7c0-0.3-0.1-0.6-0.3-0.9
							c-0.2-0.3-0.4-0.5-0.7-0.7l-1-0.5h-0.1c-0.1,0-0.2,0.1-0.2,0.3v1.4c0,0.2,0.1,0.4,0.3,0.5l0.9,0.5
							C69.6,417,69.8,417.1,70,417.1 M70.3,420.3c0.1,0,0.1,0,0.2,0c0.2-0.1,0.3-0.3,0.3-0.7c0-0.8-0.4-1.4-1.2-1.8l-1-0.6h-0.1
							c-0.1,0-0.2,0.1-0.2,0.3v1.5c0,0.2,0.1,0.5,0.3,0.5l1,0.6C69.8,420.2,70.1,420.3,70.3,420.3 M67.8,413c-0.1,0-0.1,0-0.2,0.1
							s-0.1,0.2-0.1,0.4v6c0,0.1,0,0.3,0.1,0.4s0.2,0.2,0.3,0.3l1.7,0.9c0.4,0.2,0.8,0.4,1.1,0.4c0.2,0,0.3,0,0.4-0.1
							c0.3-0.2,0.5-0.6,0.5-1.3c0-0.4-0.1-0.9-0.3-1.3c-0.2-0.3-0.3-0.6-0.6-0.9c0.1-0.1,0.3-0.2,0.4-0.3c0.1-0.2,0.2-0.5,0.2-0.9
							c0-0.6-0.1-1.1-0.4-1.6s-0.7-0.9-1.2-1.2l-1.6-0.9C67.9,413,67.8,413,67.8,413L67.8,413z M70,417c-0.1,0-0.3-0.1-0.6-0.2
							l-0.9-0.5c-0.1-0.1-0.2-0.2-0.2-0.4v-1.4c0-0.1,0-0.1,0-0.1l0,0l0,0l1,0.5c0.3,0.2,0.5,0.4,0.7,0.6c0.2,0.3,0.3,0.5,0.3,0.8
							s-0.1,0.5-0.2,0.6C70.1,417,70.1,417,70,417L70,417z M70.3,420.2c-0.2,0-0.4-0.1-0.7-0.3l-1-0.6c-0.1-0.1-0.2-0.2-0.2-0.4
							v-1.5c0-0.1,0-0.1,0-0.1l0,0l0,0l1,0.6c0.8,0.4,1.2,1,1.2,1.7C70.6,419.9,70.5,420.1,70.3,420.2
							C70.4,420.2,70.3,420.2,70.3,420.2L70.3,420.2z"/>
					</g>
				</g>
			</g>
			
				<linearGradient id="SVGID_9_" gradientUnits="userSpaceOnUse" x1="67.776" y1="273.4484" x2="113.8039" y2="273.4484" gradientTransform="matrix(0.866 -0.5 0 -1.1547 21.1984 781.43)">
				<stop  offset="2.830542e-02" style="stop-color:#FFFFFF;stop-opacity:0.2"/>
				<stop  offset="1" style="stop-color:#FFFFFF"/>
			</linearGradient>
			<polygon class="st31" points="119.6,416.7 80.3,439.4 80.3,423.9 119.6,401.1 			"/>
		</g>
		<g>
			<path class="st20" d="M159.4,344.4l51.1-30.6c0,0,0,64.9,0,67.5s0,4.3,0,4.3l-51.1,30.6V344.4z"/>
			<path class="st21" d="M210.6,313.7c0,0,1.5,2.9,3.5,4.1c2.2,1.3,6.3,1.8,6.3,1.8l-51.1,30.6l-9.8-5.9L210.6,313.7z"/>
			<line class="st28" x1="159.5" y1="344.6" x2="210.6" y2="313.7"/>
			<line class="st28" x1="161.2" y1="345.7" x2="211.7" y2="315.5"/>
			<line class="st28" x1="163.2" y1="346.9" x2="213" y2="317.1"/>
			<line class="st28" x1="165.2" y1="348.1" x2="214.9" y2="318.3"/>
			<line class="st28" x1="167.1" y1="349.4" x2="217.6" y2="319.1"/>
			
				<linearGradient id="SVGID_10_" gradientUnits="userSpaceOnUse" x1="168.2513" y1="2265.8101" x2="160.5655" y2="2190.6877" gradientTransform="matrix(1 0 0 1 0 -1844)">
				<stop  offset="1.803357e-02" style="stop-color:#C14C4C"/>
				<stop  offset="0.3505" style="stop-color:#F95959"/>
			</linearGradient>
			<polygon class="st32" points="169.3,422.1 159.4,416.2 159.4,344.4 169.3,350.2 			"/>
			<polygon class="st33" points="220.4,319.6 220.4,346.9 169.3,356 169.3,350.2 			"/>
			
				<linearGradient id="SVGID_11_" gradientUnits="userSpaceOnUse" x1="209.1984" y1="2245.6978" x2="179.9558" y2="2185.5684" gradientTransform="matrix(1 0 0 1 0 -1844)">
				<stop  offset="0.1818" style="stop-color:#C14C4C"/>
				<stop  offset="1" style="stop-color:#F95959"/>
			</linearGradient>
			<path class="st34" d="M169.3,350.2l52.8-24.5c0,0,0,64.9,0,67.5s0,4.3,0,4.3L169.3,422C169.3,422,169.3,350.2,169.3,350.2z"/>
			<g>
				<polygon class="st18" points="169.3,357.6 159.4,351.7 159.4,351.5 169.3,357.5 				"/>
			</g>
			<g>
				<polygon class="st18" points="169.3,370.4 159.4,364.4 159.4,364.3 169.3,370.2 				"/>
			</g>
			<g>
				<polygon class="st18" points="169.3,383.1 159.4,377.2 159.4,377.1 169.3,383 				"/>
			</g>
			<g>
				<polygon class="st18" points="169.3,395.9 159.4,390 159.4,389.9 169.3,395.8 				"/>
			</g>
			<g>
				<g>
					<g>
						<path class="st27" d="M165.5,364.2c-0.3,0-0.6-0.1-1-0.3l-1.7-0.9c-0.1-0.1-0.2-0.1-0.2-0.3c-0.1-0.1-0.1-0.3-0.1-0.4v-6
							c0-0.1,0-0.2,0.1-0.3c0,0,0.1-0.1,0.2-0.1h0.1l1.6,0.9c0.5,0.3,0.9,0.6,1.2,1.1c0.3,0.5,0.4,1,0.4,1.6c0,0.4-0.1,0.7-0.2,0.9
							c-0.1,0.2-0.2,0.3-0.4,0.3c0.2,0.3,0.5,0.6,0.6,0.9c0.2,0.4,0.3,0.8,0.3,1.2c0,0.6-0.1,1.1-0.5,1.3
							C165.7,364.2,165.6,364.2,165.5,364.2z M163.3,360.1C163.2,360.1,163.2,360.1,163.3,360.1c-0.1,0.1-0.1,0.1-0.1,0.2v1.5
							c0,0.2,0.1,0.4,0.2,0.5l1,0.6c0.3,0.2,0.6,0.3,0.7,0.3s0.1,0,0.2,0c0.2-0.1,0.2-0.3,0.2-0.6c0-0.7-0.4-1.3-1.2-1.8
							L163.3,360.1L163.3,360.1z M163.3,357.2C163.2,357.2,163.2,357.2,163.3,357.2c-0.1,0.1-0.1,0.1-0.1,0.2v1.4
							c0,0.2,0.1,0.4,0.2,0.5l0.9,0.5c0.3,0.1,0.5,0.2,0.6,0.2s0.1,0,0.2,0c0.1-0.1,0.2-0.3,0.2-0.6c0-0.3-0.1-0.6-0.3-0.9
							s-0.4-0.5-0.7-0.7L163.3,357.2L163.3,357.2z"/>
						<path class="st3" d="M162.7,356h0.1l1.6,0.9c0.5,0.3,0.9,0.6,1.2,1.1c0.3,0.5,0.4,1,0.4,1.5c0,0.4-0.1,0.7-0.2,0.9
							s-0.3,0.3-0.5,0.3c0.3,0.3,0.5,0.6,0.7,1s0.3,0.8,0.3,1.2c0,0.6-0.1,1-0.4,1.2c-0.1,0.1-0.2,0.1-0.4,0.1c-0.3,0-0.6-0.1-1-0.3
							l-1.7-0.9c-0.1,0-0.2-0.1-0.2-0.3c-0.1-0.1-0.1-0.2-0.1-0.4v-6c0-0.1,0-0.2,0.1-0.3C162.6,356,162.6,356,162.7,356 M164.9,360
							c0.1,0,0.1,0,0.2-0.1c0.2-0.1,0.2-0.3,0.2-0.7c0-0.3-0.1-0.6-0.3-0.9c-0.2-0.3-0.4-0.5-0.7-0.7l-1-0.5h-0.1
							c-0.1,0-0.2,0.1-0.2,0.3v1.4c0,0.2,0.1,0.4,0.3,0.5l0.9,0.5C164.5,359.9,164.7,360,164.9,360 M165.2,363.2c0.1,0,0.1,0,0.2,0
							c0.2-0.1,0.3-0.3,0.3-0.7c0-0.8-0.4-1.4-1.2-1.8l-1-0.6h-0.1c-0.1,0-0.2,0.1-0.2,0.3v1.5c0,0.2,0.1,0.5,0.3,0.5l1,0.6
							C164.7,363.1,165,363.2,165.2,363.2 M162.7,355.8c-0.1,0-0.1,0-0.2,0.1s-0.1,0.2-0.1,0.4v6c0,0.1,0,0.3,0.1,0.4
							s0.2,0.2,0.3,0.3l1.7,0.9c0.4,0.2,0.8,0.4,1.1,0.4c0.2,0,0.3,0,0.4-0.1c0.3-0.2,0.5-0.6,0.5-1.3c0-0.4-0.1-0.9-0.3-1.3
							c-0.2-0.3-0.3-0.6-0.6-0.9c0.1-0.1,0.3-0.2,0.4-0.3c0.1-0.2,0.2-0.5,0.2-0.9c0-0.6-0.1-1.1-0.4-1.6s-0.7-0.9-1.2-1.2l-1.6-0.9
							C162.8,355.8,162.7,355.8,162.7,355.8L162.7,355.8z M164.9,359.9c-0.1,0-0.3-0.1-0.6-0.2l-0.9-0.5c-0.1-0.1-0.2-0.2-0.2-0.4
							v-1.4c0-0.1,0-0.1,0-0.1l0,0l0,0l1,0.5c0.3,0.2,0.5,0.4,0.7,0.6c0.2,0.3,0.3,0.5,0.3,0.8s-0.1,0.5-0.2,0.6
							C165,359.9,165,359.9,164.9,359.9L164.9,359.9z M165.2,363.1c-0.2,0-0.4-0.1-0.7-0.3l-1-0.6c-0.1-0.1-0.2-0.2-0.2-0.4v-1.5
							c0-0.1,0-0.1,0-0.1l0,0l0,0l1,0.6c0.8,0.4,1.2,1,1.2,1.7C165.5,362.8,165.4,363,165.2,363.1
							C165.3,363.1,165.2,363.1,165.2,363.1L165.2,363.1z"/>
					</g>
				</g>
			</g>
			
				<linearGradient id="SVGID_12_" gradientUnits="userSpaceOnUse" x1="177.3252" y1="272.2758" x2="225.2857" y2="272.2758" gradientTransform="matrix(0.866 -0.5 0 -1.1547 21.1984 781.43)">
				<stop  offset="2.830542e-02" style="stop-color:#FFFFFF;stop-opacity:0.2"/>
				<stop  offset="1" style="stop-color:#FFFFFF"/>
			</linearGradient>
			<polygon class="st35" points="216.2,365.8 175.1,382.4 175.1,366.9 216.2,350.3 			"/>
			
				<linearGradient id="SVGID_13_" gradientUnits="userSpaceOnUse" x1="177.3252" y1="284.53" x2="225.2857" y2="284.53" gradientTransform="matrix(0.866 -0.5 0 -1.1547 21.1984 781.43)">
				<stop  offset="2.830542e-02" style="stop-color:#FFFFFF;stop-opacity:0.2"/>
				<stop  offset="1" style="stop-color:#FFFFFF"/>
			</linearGradient>
			<polygon class="st36" points="216.2,348.4 175.1,365 175.1,356 216.2,339.4 			"/>
			
				<linearGradient id="SVGID_14_" gradientUnits="userSpaceOnUse" x1="177.3252" y1="259.9349" x2="225.2857" y2="259.9349" gradientTransform="matrix(0.866 -0.5 0 -1.1547 21.1984 781.43)">
				<stop  offset="2.830542e-02" style="stop-color:#FFFFFF;stop-opacity:0.2"/>
				<stop  offset="1" style="stop-color:#FFFFFF"/>
			</linearGradient>
			<polygon class="st37" points="216.2,376.8 175.1,393.4 175.1,384.4 216.2,367.8 			"/>
		</g>
		<g>
			<path class="st20" d="M254.3,287.2l51.1-30.6c0,0,0,64.9,0,67.5s0,4.3,0,4.3L254.3,359C254.3,359,254.3,287.2,254.3,287.2z"/>
			<path class="st21" d="M305.4,256.6c0,0,1.5,2.9,3.5,4.1c2.2,1.3,6.3,1.8,6.3,1.8l-51.1,30.6l-9.8-5.9L305.4,256.6z"/>
			<line class="st28" x1="254.4" y1="287.4" x2="305.4" y2="256.6"/>
			<line class="st28" x1="256.1" y1="288.6" x2="306.5" y2="258.4"/>
			<line class="st28" x1="258.1" y1="289.8" x2="307.9" y2="259.9"/>
			<line class="st28" x1="260" y1="291" x2="309.8" y2="261.2"/>
			<line class="st28" x1="262" y1="292.2" x2="312.5" y2="262"/>
			
				<linearGradient id="SVGID_15_" gradientUnits="userSpaceOnUse" x1="263.1481" y1="2208.679" x2="255.4623" y2="2133.5566" gradientTransform="matrix(1 0 0 1 0 -1844)">
				<stop  offset="1.803357e-02" style="stop-color:#1D2A33"/>
				<stop  offset="0.3505" style="stop-color:#455D7A"/>
			</linearGradient>
			<polygon class="st38" points="264.2,365 254.3,359.1 254.3,287.2 264.2,293.1 			"/>
			
				<linearGradient id="SVGID_16_" gradientUnits="userSpaceOnUse" x1="304.0856" y1="2187.2693" x2="272.9955" y2="2123.3411" gradientTransform="matrix(1 0 0 1 0 -1844)">
				<stop  offset="0.1818" style="stop-color:#1D2A33"/>
				<stop  offset="1" style="stop-color:#455D7A"/>
			</linearGradient>
			<path class="st39" d="M264.2,293.1l51.1-30.6c0,0,0,64.9,0,67.5s0,4.3,0,4.3l-51.1,30.6V293.1z"/>
			<g>
				<polygon class="st2" points="264.2,300.5 254.3,294.5 254.3,294.4 264.2,300.3 				"/>
			</g>
			<g>
				<polygon class="st2" points="264.2,313.2 254.3,307.3 254.3,307.2 264.2,313.1 				"/>
			</g>
			<g>
				<polygon class="st2" points="264.2,326 254.3,320.1 254.3,320 264.2,325.9 				"/>
			</g>
			<g>
				<polygon class="st2" points="264.2,338.8 254.3,332.8 254.3,332.7 264.2,338.7 				"/>
			</g>
			<g>
				<polygon class="st2" points="264.2,351.6 254.3,345.6 254.3,345.5 264.2,351.4 				"/>
			</g>
			<g>
				<g>
					<g>
						<path class="st27" d="M260.3,307.1c-0.3,0-0.6-0.1-1-0.3l-1.7-0.9c-0.1-0.1-0.2-0.1-0.2-0.3c-0.1-0.1-0.1-0.3-0.1-0.4v-6
							c0-0.1,0-0.2,0.1-0.3c0,0,0.1-0.1,0.2-0.1h0.1l1.6,0.9c0.5,0.3,0.9,0.6,1.2,1.1s0.4,1,0.4,1.6c0,0.4-0.1,0.7-0.2,0.9
							c-0.1,0.2-0.2,0.3-0.4,0.3c0.2,0.3,0.5,0.6,0.6,0.9c0.2,0.4,0.3,0.8,0.3,1.2c0,0.6-0.1,1.1-0.5,1.3
							C260.6,307.1,260.5,307.1,260.3,307.1z M258.2,303C258.1,303,258.1,303,258.2,303c-0.1,0.1-0.1,0.1-0.1,0.2v1.5
							c0,0.2,0.1,0.4,0.2,0.5l1,0.6c0.3,0.2,0.6,0.3,0.7,0.3c0.1,0,0.1,0,0.2,0c0.2-0.1,0.2-0.3,0.2-0.6c0-0.7-0.4-1.3-1.2-1.8
							L258.2,303L258.2,303z M258.1,300C258.1,300,258.1,300.1,258.1,300c-0.1,0.1-0.1,0.1-0.1,0.2v1.4c0,0.2,0.1,0.4,0.2,0.5
							l0.9,0.5c0.3,0.1,0.5,0.2,0.6,0.2s0.1,0,0.2,0c0.1-0.1,0.2-0.3,0.2-0.6c0-0.3-0.1-0.6-0.3-0.9s-0.4-0.5-0.7-0.7L258.1,300
							L258.1,300z"/>
						<path class="st3" d="M257.5,298.8L257.5,298.8l1.7,0.9c0.5,0.3,0.9,0.6,1.2,1.1s0.4,1,0.4,1.5c0,0.4-0.1,0.7-0.2,0.9
							c-0.1,0.2-0.3,0.3-0.5,0.3c0.3,0.3,0.5,0.6,0.7,1s0.3,0.8,0.3,1.2c0,0.6-0.1,1-0.4,1.2c-0.1,0.1-0.2,0.1-0.4,0.1
							c-0.3,0-0.6-0.1-1-0.3l-1.7-0.9c-0.1,0-0.2-0.1-0.2-0.3c-0.1-0.1-0.1-0.2-0.1-0.4v-6c0-0.1,0-0.2,0.1-0.3
							C257.5,298.8,257.5,298.8,257.5,298.8 M259.8,302.9c0.1,0,0.1,0,0.2-0.1c0.2-0.1,0.2-0.3,0.2-0.7c0-0.3-0.1-0.6-0.3-0.9
							s-0.4-0.5-0.7-0.7l-1-0.5h-0.1c-0.1,0-0.2,0.1-0.2,0.3v1.4c0,0.2,0.1,0.4,0.3,0.5l0.9,0.5
							C259.4,302.8,259.6,302.9,259.8,302.9 M260.1,306.1c0.1,0,0.1,0,0.2,0c0.2-0.1,0.3-0.3,0.3-0.7c0-0.8-0.4-1.4-1.2-1.8l-1-0.6
							h-0.1c-0.1,0-0.2,0.1-0.2,0.3v1.5c0,0.2,0.1,0.5,0.3,0.5l1,0.6C259.6,306,259.9,306.1,260.1,306.1 M257.5,298.7
							c-0.1,0-0.1,0-0.2,0.1c-0.1,0.1-0.1,0.2-0.1,0.4v6c0,0.1,0,0.3,0.1,0.4s0.2,0.2,0.3,0.3l1.7,0.9c0.4,0.2,0.8,0.4,1.1,0.4
							c0.2,0,0.3,0,0.4-0.1c0.3-0.2,0.5-0.6,0.5-1.3c0-0.4-0.1-0.9-0.3-1.3c-0.2-0.3-0.3-0.6-0.6-0.9c0.1-0.1,0.3-0.2,0.4-0.3
							c0.1-0.2,0.2-0.5,0.2-0.9c0-0.6-0.1-1.1-0.4-1.6c-0.3-0.5-0.7-0.9-1.2-1.2l-1.6-0.9C257.7,298.7,257.6,298.7,257.5,298.7
							L257.5,298.7z M259.8,302.7c-0.1,0-0.3-0.1-0.6-0.2l-0.9-0.5c-0.1-0.1-0.2-0.2-0.2-0.4v-1.4c0-0.1,0-0.1,0-0.1l0,0l0,0l1,0.5
							c0.3,0.2,0.5,0.4,0.7,0.6c0.2,0.3,0.3,0.5,0.3,0.8s-0.1,0.5-0.2,0.6C259.9,302.7,259.8,302.7,259.8,302.7L259.8,302.7z
							 M260.1,306c-0.2,0-0.4-0.1-0.7-0.3l-1-0.6c-0.1-0.1-0.2-0.2-0.2-0.4v-1.5c0-0.1,0-0.1,0-0.1l0,0l0,0l1,0.6
							c0.8,0.4,1.2,1,1.2,1.7C260.4,305.7,260.3,305.9,260.1,306C260.1,305.9,260.1,306,260.1,306L260.1,306z"/>
					</g>
				</g>
			</g>
			
				<linearGradient id="SVGID_17_" gradientUnits="userSpaceOnUse" x1="286.9048" y1="280.5451" x2="332.9329" y2="280.5451" gradientTransform="matrix(0.866 -0.5 0 -1.1547 21.1984 781.43)">
				<stop  offset="2.830542e-02" style="stop-color:#FFFFFF;stop-opacity:0.2"/>
				<stop  offset="1" style="stop-color:#FFFFFF"/>
			</linearGradient>
			<polygon class="st40" points="309.4,295.4 270,318.1 270,309.6 309.4,286.9 			"/>
			
				<linearGradient id="SVGID_18_" gradientUnits="userSpaceOnUse" x1="298.4291" y1="271.3464" x2="324.2563" y2="271.3464" gradientTransform="matrix(0.866 -0.5 0 -1.1547 21.1984 781.43)">
				<stop  offset="2.830542e-02" style="stop-color:#FFFFFF;stop-opacity:0.2"/>
				<stop  offset="1" style="stop-color:#FFFFFF"/>
			</linearGradient>
			<polygon class="st41" points="302,310.3 279.9,323 279.9,314.5 302,301.8 			"/>
		</g>
	</g>
	<g>
		<path class="st4" d="M673.7,484.8l0.8,76c0,1.6,1.9,3.3,2.6,2.4l19.2-23.3c0.6-0.7,1.8,0,2.4,1.3l20,45.6c0.8,1.8,2.6,2.2,2.6,0.6
			l-0.6-75.9L673.7,484.8z"/>
		<g>
			<path class="st42" d="M533.7,403.9L723,518.3c5.1,2.9,12.8-0.7,12.8-8.5l-0.1-295.2c0-5.4-3.4-11-7.1-13.4L533.7,88.6
				c-5.1-2.9-15.8-1.9-15.8,6l6.5,291.6C524.4,393,528.6,400.9,533.7,403.9z"/>
			<g>
				<ellipse class="st12" cx="660.6" cy="164.1" rx="2.5" ry="1.5"/>
				<ellipse class="st12" cx="666" cy="167.2" rx="2.5" ry="1.5"/>
				<ellipse class="st12" cx="671.4" cy="170.4" rx="2.5" ry="1.5"/>
				<ellipse class="st12" cx="676.8" cy="173.5" rx="2.5" ry="1.5"/>
				<ellipse class="st12" cx="682.2" cy="176.6" rx="2.5" ry="1.5"/>
				<ellipse class="st12" cx="687.6" cy="179.7" rx="2.5" ry="1.5"/>
				<ellipse class="st12" cx="693" cy="182.8" rx="2.5" ry="1.5"/>
				<ellipse class="st12" cx="698.4" cy="186" rx="2.5" ry="1.5"/>
				<ellipse class="st12" cx="703.8" cy="189.1" rx="2.5" ry="1.5"/>
			</g>
			<path class="st7" d="M526.6,405.3l194.9,112.5c5.1,2.9,9.3-0.2,9.3-7V220.2c0-6.8-4.1-14.7-9.3-17.7L526.6,90
				c-5.1-2.9-9.3,0.2-9.3,7v290.6C517.3,394.4,521.5,402.3,526.6,405.3z"/>
			<path class="st2" d="M529.7,402.5l188.7,108.9c5.1,2.9,9.3-0.2,9.3-7V223c-0.4-9.5-4.1-14.7-9.3-17.7l-188.7-109
				c-5.1-2.9-9.3,0.2-9.3,7v281.5C520.4,391.7,524.5,399.6,529.7,402.5z"/>
			<g>
				<g>
					<defs>
						<path id="SVGID_19_" d="M529.7,402.5l188.7,108.9c5.1,2.9,9.3-0.2,9.3-7v-281c-0.4-9.2-4.1-14.7-9.3-17.7l-188.7-109
							c-5.1-2.9-9.3,0.2-9.3,7v281.1C520.4,391.7,524.5,399.6,529.7,402.5z"/>
					</defs>
					<clipPath id="SVGID_20_">
						<use xlink:href="#SVGID_19_"  style="overflow:visible;"/>
					</clipPath>
					<polygon class="st43" points="510.5,68.2 755.3,575.6 473,403.1 494.7,54.4 					"/>
				</g>
			</g>
			<path class="st3" d="M535.9,384.1l176.2,101.7c5.1,2.9,9.3-0.2,9.3-7V228.6c0-6.8-4.1-14.7-9.3-17.7L535.9,109.2
				c-5.1-2.9-9.3,0.2-9.3,7v250.2C526.7,373.2,530.8,381.1,535.9,384.1z"/>
			<g>
				<g>
					<defs>
						<path id="SVGID_21_" d="M535.9,384.1l176.2,101.7c5.1,2.9,9.3-0.2,9.3-7V228.6c0-6.8-4.1-14.7-9.3-17.7L535.9,109.2
							c-5.1-2.9-9.3,0.2-9.3,7v250.2C526.7,373.2,530.8,381.1,535.9,384.1z"/>
					</defs>
					<clipPath id="SVGID_22_">
						<use xlink:href="#SVGID_21_"  style="overflow:visible;"/>
					</clipPath>
					<polygon class="st44" points="517.3,82.8 747.3,544.6 482.2,382.9 502.5,70 					"/>
				</g>
			</g>
			<path class="st45" d="M593.6,433.8l23.4,13.5c2.2,1.3,4-0.1,4-3l0,0c0-2.9-1.8-6.4-4-7.7l-23.4-13.5c-2.2-1.3-4,0.1-4,3l0,0
				C589.6,429.1,591.4,432.5,593.6,433.8z"/>
			<polygon class="st16" points="482.8,256.1 672.7,365.7 719.2,338.9 529.2,229.2 			"/>
			<polygon class="st15" points="482.8,249.2 672.7,358.8 719.2,332 529.2,222.4 			"/>
			<polygon class="st16" points="672.7,365.7 719.2,338.9 719.2,332 672.7,358.8 			"/>
			<polygon class="st17" points="482.8,256.1 672.7,365.7 672.7,358.8 482.8,249.2 			"/>
			<g>
				<path class="st13" d="M547.9,101.9l9.5,5.5c0.8,0.5,2.2,0.4,3.1-0.1l0,0c0.9-0.5,1.1-2,0.3-2.5l-9.6-4.8
					c-0.8-0.5-2.2-0.4-3.1,0.1l-0.3-0.4C546.9,100.1,547.1,101.4,547.9,101.9z"/>
				<path class="st46" d="M547.9,101l9.5,5.5c0.8,0.5,2.2,0.4,3.1-0.1l0,0c0.9-0.5,1-1.4,0.2-1.8l-9.5-5.5c-0.8-0.5-2.2-0.4-3.1,0.1
					l0,0C547.2,99.8,547.1,100.6,547.9,101z"/>
			</g>
		</g>
		<path class="st20" d="M689.1,321.1L656,340.9l-8.9-5.2l33.1-19.9L689.1,321.1z"/>
		<path class="st20" d="M567.8,255l-33.1,19.9l-8.9-5.2l33.1-19.9L567.8,255z"/>
		<path class="st20" d="M555.7,248l-33.1,19.8l-8.9-5.2l33.1-19.9L555.7,248z"/>
		<text transform="matrix(0.7401 0.4501 -0.8601 0.5101 661.0044 321.1089)" class="st47 st48 st49"> </text>
		
			<linearGradient id="SVGID_23_" gradientUnits="userSpaceOnUse" x1="622.3105" y1="2164.6885" x2="679.4578" y2="2159.9263" gradientTransform="matrix(1 0 0 1 0 -1844)">
			<stop  offset="0" style="stop-color:#B24444"/>
			<stop  offset="9.049368e-02" style="stop-color:#C04848"/>
			<stop  offset="0.2982" style="stop-color:#D94F4F"/>
			<stop  offset="0.5141" style="stop-color:#EB5555"/>
			<stop  offset="0.7417" style="stop-color:#F65858"/>
			<stop  offset="1" style="stop-color:#F95959"/>
		</linearGradient>
		<polygon class="st50" points="621.8,320.7 655.1,300.8 680.3,315.9 647.2,335.8 		"/>
		<path class="st27" d="M680,309c0,0-1,2.4-1,4c0,1.7,0.7,2.7,0.7,2.7l-32.5,19.5l-24.7-14.5v-6.8l24.7,14.7L680,309z"/>
		
			<linearGradient id="SVGID_24_" gradientUnits="userSpaceOnUse" x1="642.3376" y1="2144.7178" x2="660.1805" y2="2165.9392" gradientTransform="matrix(1 0 0 1 0 -1844)">
			<stop  offset="0" style="stop-color:#B24444"/>
			<stop  offset="2.116899e-02" style="stop-color:#B74646"/>
			<stop  offset="0.1451" style="stop-color:#D34E4E"/>
			<stop  offset="0.2704" style="stop-color:#E65353"/>
			<stop  offset="0.3971" style="stop-color:#F25757"/>
			<stop  offset="0.527" style="stop-color:#F65858"/>
		</linearGradient>
		<polygon class="st51" points="621.9,313.6 655.1,293.6 680.4,308.7 647.2,328.6 		"/>
		<polygon class="st52" points="621.9,313.6 621.8,320.7 622.5,320.7 622.5,314 		"/>
		<polyline class="st53" points="622.5,314.1 647.2,328.7 679.9,309.1 		"/>
		<path class="st20" d="M647.2,328.6L680,309c0,0-1,2.4-1,4c0,1.7,0.7,2.7,0.7,2.7l-32.5,19.5V328.6z"/>
		<polyline class="st53" points="622.5,314.8 647.2,329.5 679.6,310.1 		"/>
		<polyline class="st53" points="622.5,316.3 647.2,331 679.1,311.8 		"/>
		<polyline class="st53" points="622.5,317.8 647.2,332.5 679,313.4 		"/>
		<polyline class="st53" points="622.5,319.3 647.2,334 679.2,314.8 		"/>
		<text transform="matrix(0.7401 0.4501 -0.8601 0.5101 658.7771 309.0775)" class="st47 st48 st54"> </text>
		<line class="st55" x1="622.5" y1="314" x2="621.9" y2="313.6"/>
		
			<linearGradient id="SVGID_25_" gradientUnits="userSpaceOnUse" x1="645.2465" y1="365.8676" x2="667.6248" y2="353.0255" gradientTransform="matrix(1 0 0 -1 0 667.7787)">
			<stop  offset="0" style="stop-color:#FFFFFF;stop-opacity:0.2"/>
			<stop  offset="1" style="stop-color:#FFFFFF"/>
		</linearGradient>
		<polygon class="st56" points="664.8,317 640.9,303.3 647.7,299.4 671.5,313.1 		"/>
		<g>
			<polygon class="st57" points="550.6,237.7 511.6,260.2 511.6,204.7 513.1,203.8 550.6,182.2 551.5,182.9 			"/>
			<polygon class="st58" points="550.6,238.9 512.5,260.5 512,205.6 551.5,182.9 			"/>
			<polygon class="st21" points="556,187.6 517.7,209.8 511.8,206.4 550.1,184.2 			"/>
			
				<linearGradient id="SVGID_26_" gradientUnits="userSpaceOnUse" x1="516.888" y1="457.5093" x2="558.412" y2="428.0694" gradientTransform="matrix(1 0 0 -1 0 667.7787)">
				<stop  offset="0" style="stop-color:#F95959"/>
				<stop  offset="1" style="stop-color:#AF4857"/>
			</linearGradient>
			<polygon class="st59" points="557.2,241.5 518.2,264 518.2,208.5 557.2,186 			"/>
			<path class="st60" d="M518.2,264l-1.6-0.3c-2.1-0.4-4-1.7-5-3.5l0,0v-55.5l0.7,0.9c1.1,1.5,2.7,2.4,4.5,2.7l1.4,0.2L518.2,264
				L518.2,264z"/>
			<path class="st57" d="M557.2,186l-1-0.6l-37.9,21.9l-0.4-0.1c-1.8-0.4-3.4-1.5-4.5-2.9l-0.3-0.4l-1.5,0.9l1.1,1.4
				c0.9,1.2,2.2,1.9,3.6,2.1l1.9,0.3l1.5-0.9l0,0L557.2,186z"/>
		</g>
		<g>
			<polygon class="st57" points="564.5,243.1 523.3,266.9 523.3,208.3 524.9,207.3 564.5,184.5 565.4,185.3 			"/>
			<polygon class="st58" points="564.5,244.4 524.3,267.2 523.8,209.3 565.4,185.3 			"/>
			<polygon class="st21" points="570.2,190.2 529.7,213.6 523.5,210 564,186.6 			"/>
			
				<linearGradient id="SVGID_27_" gradientUnits="userSpaceOnUse" x1="528.9312" y1="453.6293" x2="572.7688" y2="422.5494" gradientTransform="matrix(1 0 0 -1 0 667.7787)">
				<stop  offset="0" style="stop-color:#F95959"/>
				<stop  offset="1" style="stop-color:#AF4857"/>
			</linearGradient>
			<polygon class="st61" points="571.5,247.1 530.3,270.9 530.3,212.3 571.5,188.5 			"/>
			<path class="st60" d="M530.3,270.9l-1.7-0.3c-2.2-0.4-4.2-1.8-5.3-3.7l0,0v-58.6l0.7,1c1.1,1.6,2.9,2.6,4.8,2.8l1.5,0.2V270.9z"
				/>
			<path class="st57" d="M571.5,188.5l-1.1-0.7l-40,23.2l-0.4-0.1c-1.9-0.4-3.6-1.5-4.7-3.1l-0.3-0.5l-1.6,0.9l1.1,1.5
				c0.9,1.2,2.3,2,3.8,2.2l2,0.3l1.6-0.9l0,0L571.5,188.5z"/>
		</g>
		<path class="st20" d="M585.7,258.7l-39.3,23l-9.7-5.5l42.8-21.5L585.7,258.7z"/>
		<g>
			<polygon class="st57" points="565.3,256.5 534.8,274.1 534.8,230.6 535.9,229.9 565.3,212.9 566,213.5 			"/>
			<polygon class="st58" points="565.3,257.5 535.4,274.4 535.1,231.3 566,213.5 			"/>
			<polygon class="st21" points="569.6,217.2 539.5,234.6 534.9,231.9 564.9,214.5 			"/>
			
				<linearGradient id="SVGID_28_" gradientUnits="userSpaceOnUse" x1="540.0217" y1="432.015" x2="571.6049" y2="409.6232" gradientTransform="matrix(1 0 0 -1 0 667.7787)">
				<stop  offset="0" style="stop-color:#F95959"/>
				<stop  offset="1" style="stop-color:#AF4857"/>
			</linearGradient>
			<polygon class="st62" points="570.5,259.5 539.9,277.1 539.9,233.6 570.5,215.9 			"/>
			<path class="st60" d="M539.9,277.1l-1.2-0.2c-1.7-0.3-3.1-1.3-3.9-2.8l0,0v-43.6l0.5,0.7c0.9,1.2,2.1,1.9,3.6,2.1l1.1,0.1
				L539.9,277.1L539.9,277.1z"/>
			<path class="st57" d="M570.5,215.9l-0.8-0.5L540,232.6l-0.3-0.1c-1.4-0.3-2.7-1.1-3.5-2.3l-0.2-0.3l-1.2,0.7l0.8,1.1
				c0.7,0.9,1.7,1.5,2.8,1.7l1.5,0.2l1.2-0.7l0,0L570.5,215.9z"/>
		</g>
		<g>
			<polygon class="st63" points="604.4,269.1 565.4,291.7 565.4,236.1 566.9,235.3 604.4,213.6 605.3,214.4 			"/>
			<polygon class="st2" points="604.4,270.4 566.3,292 565.9,237.1 605.3,214.4 			"/>
			<polygon class="st21" points="609.8,219 571.5,241.2 565.6,237.8 603.9,215.6 			"/>
			<polygon class="st1" points="611,273 572,295.5 572,240 611,217.4 			"/>
			<path class="st2" d="M572,295.5l-1.6-0.3c-2.1-0.4-4-1.7-5-3.5l0,0v-55.5l0.7,0.9c1.1,1.5,2.7,2.4,4.5,2.7l1.4,0.2L572,295.5
				L572,295.5z"/>
			<path class="st63" d="M611,217.4l-1-0.6L572,238.7l-0.4-0.1c-1.8-0.4-3.4-1.5-4.5-2.9l-0.3-0.4l-1.5,0.9l1.1,1.4
				c0.9,1.2,2.2,1.9,3.6,2.1l1.9,0.3l1.5-0.9l0,0L611,217.4z"/>
		</g>
		<g>
			<polygon class="st63" points="612.4,273 572.8,295.5 590.8,250.9 592.3,250 630.3,228.4 630.7,228.9 			"/>
			<polygon class="st2" points="612,274 573.5,295.6 590.8,251.6 630.7,228.9 			"/>
			<polygon class="st21" points="633,232.2 594.1,254.3 590.4,252.2 629.2,230.1 			"/>
			<polygon class="st64" points="616.6,275.3 577.1,297.8 595,253.2 634.5,230.8 			"/>
			<path class="st2" d="M577.1,297.8h-1.2c-1.6-0.1-2.7-0.9-3-2.3l0,0l17.9-44.6l0.3,0.7c0.4,1.1,1.5,1.6,2.9,1.6h1.1L577.1,297.8z"
				/>
			<path class="st63" d="M634.5,230.8l-0.7-0.4l-38.4,21.9H595c-1.4-0.1-2.3-0.8-2.7-1.9l-0.1-0.3l-1.5,0.9l0.4,1
				c0.4,0.8,1.2,1.3,2.3,1.3h1.5l1.6-0.9l0,0L634.5,230.8z"/>
		</g>
		<path class="st20" d="M650,295.5l-39.3,23l-13.9-8.1l42.8-21.5L650,295.5z"/>
		<path class="st20" d="M627,282.2l-29.4,27.9l-23.8-13l42.8-21.5L627,282.2z"/>
		<g>
			<polygon class="st63" points="633.6,285.5 594.6,308 594.6,252.5 596.1,251.6 633.6,230 634.5,230.7 			"/>
			<polygon class="st2" points="633.6,286.7 595.5,308.3 595,253.4 634.5,230.7 			"/>
			<polygon class="st21" points="639,235.4 600.7,257.6 594.8,254.2 633.1,232 			"/>
			<polygon class="st1" points="640.2,289.3 601.2,311.8 601.2,256.3 640.2,233.8 			"/>
			<path class="st2" d="M601.2,311.8l-1.6-0.3c-2.1-0.4-4-1.7-5-3.5l0,0v-55.5l0.7,0.9c1.1,1.5,2.7,2.4,4.5,2.7l1.4,0.2L601.2,311.8
				L601.2,311.8z"/>
			<path class="st63" d="M640.2,233.8l-1-0.6l-37.9,21.9l-0.4-0.1c-1.8-0.4-3.4-1.5-4.5-2.9l-0.3-0.4l-1.5,0.9l1.1,1.4
				c0.9,1.2,2.2,1.9,3.6,2.1l1.9,0.3l1.5-0.9l0,0L640.2,233.8z"/>
		</g>
	</g>
</g>
</svg>
