<?xml version="1.0" encoding="utf-8"?>
<!-- Generator: Adobe Illustrator 22.1.0, SVG Export Plug-In . SVG Version: 6.00 Build 0)  -->
<svg version="1.1" id="Layer_1" xmlns="http://www.w3.org/2000/svg" xmlns:xlink="http://www.w3.org/1999/xlink" x="0px" y="0px"
	 viewBox="0 0 734.4 696.8" style="enable-background:new 0 0 734.4 696.8;" xml:space="preserve">
<style type="text/css">
	.st0{fill:#FF6473;}
	.st1{fill:#233142;}
	.st2{fill:#1D2A33;}
	.st3{fill:#455D7A;}
	.st4{fill:#F95959;}
	.st5{opacity:0.1;enable-background:new    ;}
	.st6{fill:#F7F7F7;}
	.st7{fill:none;stroke:#CCCCCC;stroke-width:1.1504;stroke-miterlimit:10;}
	.st8{fill:url(#SVGID_1_);}
	.st9{fill:url(#SVGID_2_);}
	.st10{fill:url(#SVGID_3_);}
	.st11{fill:#FFFFFF;}
	.st12{fill:url(#SVGID_4_);}
	.st13{fill:#2F4051;}
	.st14{fill:none;stroke:#D1D1D1;stroke-width:0.2664;stroke-miterlimit:10;}
	.st15{fill:#393E46;}
	.st16{font-family:'ArialMT';}
	.st17{font-size:28.4929px;}
	.st18{fill:none;stroke:#4C4C4C;stroke-width:0.2664;stroke-miterlimit:10;}
	.st19{fill:url(#SVGID_5_);}
	.st20{opacity:0.63;enable-background:new    ;}
	.st21{fill:url(#SVGID_6_);}
	.st22{fill:url(#SVGID_7_);}
	.st23{fill:#B24444;}
	.st24{fill:none;stroke:#D1D1D1;stroke-width:0.1983;stroke-miterlimit:10;}
	.st25{font-size:21.2062px;}
	.st26{fill:none;stroke:#4C4C4C;stroke-width:0.1983;stroke-miterlimit:10;}
	.st27{fill:#1F2A33;}
	.st28{fill:url(#SVGID_8_);}
	.st29{enable-background:new    ;}
</style>
<rect x="180.8" y="197.3" class="st0" width="37.3" height="37.3"/>
<rect x="225" y="242.2" class="st1" width="37.3" height="37.3"/>
<rect x="225" y="294.4" class="st2" width="37.3" height="37.3"/>
<rect x="180.8" y="242.2" class="st3" width="37.3" height="37.3"/>
<rect x="225" y="197.3" class="st4" width="37.3" height="37.3"/>
<path class="st5" d="M112.7,162.3L381.5,1.2c0,0,0,341,0,354.8s0,22.5,0,22.5L112.7,539.6C112.7,539.6,112.7,162.3,112.7,162.3z"/>
<path class="st6" d="M381.5,1.2c0,0,8.1,15.4,18.2,21.6C411.1,29.7,433,32,433,32L164.3,193.1l-51.8-30.8L381.5,1.2z"/>
<line class="st7" x1="113" y1="163.2" x2="381.5" y2="1.2"/>
<line class="st7" x1="122.2" y1="169.2" x2="387.2" y2="10.4"/>
<line class="st7" x1="132.5" y1="175.6" x2="394.3" y2="18.7"/>
<line class="st7" x1="142.9" y1="182.1" x2="404.5" y2="25.1"/>
<line class="st7" x1="153.2" y1="188.5" x2="418.5" y2="29.5"/>
<linearGradient id="SVGID_1_" gradientUnits="userSpaceOnUse" x1="159.3626" y1="1007.283" x2="118.9683" y2="612.4617" gradientTransform="matrix(1 0 0 1 0 -438)">
	<stop  offset="1.803357e-02" style="stop-color:#1D2A33"/>
	<stop  offset="2.599732e-02" style="stop-color:#1D2A34"/>
	<stop  offset="0.1779" style="stop-color:#222F3F"/>
	<stop  offset="0.3505" style="stop-color:#233142"/>
</linearGradient>
<polygon class="st8" points="164.5,570.7 112.7,539.8 112.7,162.3 164.5,193.1 "/>
<linearGradient id="SVGID_2_" gradientUnits="userSpaceOnUse" x1="374.5145" y1="894.7902" x2="211.1138" y2="558.8017" gradientTransform="matrix(1 0 0 1 0 -438)">
	<stop  offset="0.2737" style="stop-color:#1D2A33"/>
	<stop  offset="0.2911" style="stop-color:#1D2A34"/>
	<stop  offset="0.6229" style="stop-color:#222F3F"/>
	<stop  offset="1" style="stop-color:#233142"/>
</linearGradient>
<path class="st9" d="M164.5,193.1L433.2,32c0,0,0,341,0,354.8s0,22.5,0,22.5L164.5,570.4C164.5,570.4,164.5,193.1,164.5,193.1z"/>
<linearGradient id="SVGID_3_" gradientUnits="userSpaceOnUse" x1="170.8866" y1="1043.5483" x2="563.1783" y2="951.5151" gradientTransform="matrix(1 0 0 1 0 -438)">
	<stop  offset="0" style="stop-color:#2F4051"/>
	<stop  offset="0.1027" style="stop-color:#34465A"/>
	<stop  offset="0.3782" style="stop-color:#3D536C"/>
	<stop  offset="0.6694" style="stop-color:#435B77"/>
	<stop  offset="1" style="stop-color:#455D7A"/>
</linearGradient>
<polygon class="st10" points="164.5,570.4 440.1,405.2 648.8,530.4 374.6,694.9 "/>
<path class="st11" d="M645.6,473.6c0,0-8.1,19.6-8.1,33.4s5.8,22.5,5.8,22.5L374.6,690.5L170.2,570.4v-55.7l204.3,121.5L645.6,473.6
	z"/>
<linearGradient id="SVGID_4_" gradientUnits="userSpaceOnUse" x1="345.3396" y1="-881.0338" x2="471.5703" y2="-1076.5313" gradientTransform="matrix(1 0 0 -1 0 -484.6626)">
	<stop  offset="0.1027" style="stop-color:#2F4051"/>
	<stop  offset="0.4415" style="stop-color:#3D526B"/>
	<stop  offset="0.6216" style="stop-color:#455D7A"/>
</linearGradient>
<polygon class="st12" points="164.5,511.5 440.1,346.3 649.1,471.5 374.6,636 "/>
<path class="st5" d="M643.5,474.5L439.9,596.7l-54.5-32.2l204.1-122.6L643.5,474.5z"/>
<polygon class="st13" points="164.5,511.5 164.5,570.4 170.2,570.7 170.2,514.8 "/>
<polyline class="st14" points="170.2,515.4 374.6,636.9 645.1,474.5 "/>
<polyline class="st14" points="170.2,521.7 374.6,643.1 642.4,482.3 "/>
<polyline class="st14" points="170.2,534.1 374.6,655.6 638.5,497 "/>
<polyline class="st14" points="170.2,546.5 374.6,668 637.5,509.9 "/>
<polyline class="st14" points="170.2,558.7 374.6,680.4 639.6,521.2 "/>
<path class="st5" d="M374.6,636.2L645.4,474c0,0-8.1,19.3-8.1,33.1c0,13.8,6,22.5,6,22.5L374.6,690.8L374.6,636.2L374.6,636.2z"/>
<text transform="matrix(0.7401 0.4501 -0.8601 0.5101 470.6078 474.319)" class="st15 st16 st17"> </text>
<line class="st18" x1="170.2" y1="515" x2="164.5" y2="511.5"/>
<linearGradient id="SVGID_5_" gradientUnits="userSpaceOnUse" x1="258.307" y1="1476.9757" x2="291.1852" y2="1428.005" gradientTransform="matrix(1 0 0 1 -81.51 -879.7444)">
	<stop  offset="0.1081" style="stop-color:#F95959"/>
	<stop  offset="0.2763" style="stop-color:#F96262;stop-opacity:0.8342"/>
	<stop  offset="0.3284" style="stop-color:#FA6D6D;stop-opacity:0.803"/>
	<stop  offset="0.3706" style="stop-color:#FA7E7E;stop-opacity:0.7777"/>
	<stop  offset="0.4067" style="stop-color:#FB9494;stop-opacity:0.756"/>
	<stop  offset="0.4387" style="stop-color:#FCB0B0;stop-opacity:0.7368"/>
	<stop  offset="0.4676" style="stop-color:#FDD0D0;stop-opacity:0.7194"/>
	<stop  offset="0.4934" style="stop-color:#FFF4F4;stop-opacity:0.704"/>
	<stop  offset="0.5" style="stop-color:#FFFFFF;stop-opacity:0.7"/>
	<stop  offset="0.5066" style="stop-color:#FFF4F4;stop-opacity:0.704"/>
	<stop  offset="0.5324" style="stop-color:#FDD0D0;stop-opacity:0.7194"/>
	<stop  offset="0.5613" style="stop-color:#FCB0B0;stop-opacity:0.7368"/>
	<stop  offset="0.5933" style="stop-color:#FB9494;stop-opacity:0.756"/>
	<stop  offset="0.6294" style="stop-color:#FA7E7E;stop-opacity:0.7777"/>
	<stop  offset="0.6716" style="stop-color:#FA6D6D;stop-opacity:0.803"/>
	<stop  offset="0.7237" style="stop-color:#F96262;stop-opacity:0.8342"/>
	<stop  offset="0.7969" style="stop-color:#F95B5B;stop-opacity:0.8781"/>
	<stop  offset="0.9027" style="stop-color:#F95959"/>
</linearGradient>
<path class="st19" d="M221.6,564.7c-6.2-0.9-12.4,1.4-16.3,6.4c-6.4,8.5-0.7,15,0.7,16.6c12.7,11.5-21.9,23.9-21.9,23.9l-2.8-15.4
	l-21.6,0.9c0,0,20-11.3,18.2-21.2c-0.5-1.6-1.4-3.2-2.8-4.4c-1.4-1.4-7.1-7.6-0.7-16.1c6.4-8.5,19.3-7.1,19.3-7.1L221.6,564.7z"/>
<path class="st20" d="M221.6,564.7c0,0-14,8.5-12.9,28.8c0-2.3-0.9-4.4-2.8-5.8c-3.7-3.5-4.6-9.2-2.5-13.8
	C206.8,567.2,214.2,563.5,221.6,564.7z"/>
<linearGradient id="SVGID_6_" gradientUnits="userSpaceOnUse" x1="232.2238" y1="909.4546" x2="584.2509" y2="880.119" gradientTransform="matrix(1 0 0 1 0 -438)">
	<stop  offset="0" style="stop-color:#B24444"/>
	<stop  offset="9.049368e-02" style="stop-color:#C04848"/>
	<stop  offset="0.2982" style="stop-color:#D94F4F"/>
	<stop  offset="0.5141" style="stop-color:#EB5555"/>
	<stop  offset="0.7417" style="stop-color:#F65858"/>
	<stop  offset="1" style="stop-color:#F95959"/>
</linearGradient>
<polygon class="st21" points="228.9,471.7 434.2,348.9 589.5,442 385.4,564.5 "/>
<path class="st11" d="M587.2,399.7c0,0-6,14.5-6,24.8s4.4,16.8,4.4,16.8L385.6,561.2L233.3,472v-41.6l152.1,90.4L587.2,399.7z"/>
<linearGradient id="SVGID_7_" gradientUnits="userSpaceOnUse" x1="355.4379" y1="786.8558" x2="465.3513" y2="917.5794" gradientTransform="matrix(1 0 0 1 0 -438)">
	<stop  offset="0" style="stop-color:#B24444"/>
	<stop  offset="2.116899e-02" style="stop-color:#B74646"/>
	<stop  offset="0.1451" style="stop-color:#D34E4E"/>
	<stop  offset="0.2704" style="stop-color:#E65353"/>
	<stop  offset="0.3971" style="stop-color:#F25757"/>
	<stop  offset="0.527" style="stop-color:#F65858"/>
</linearGradient>
<polygon class="st22" points="229.2,428 434.2,304.9 589.7,398.1 385.4,520.5 "/>
<polygon class="st23" points="229.2,428 228.9,471.7 233.3,472 233.3,430.3 "/>
<polyline class="st24" points="233.3,430.8 385.4,521.2 586.9,400.4 "/>
<path class="st5" d="M385.1,520.5l201.8-120.8c0,0-6,14.5-6,24.8s4.4,16.8,4.4,16.8L385.1,561.2V520.5z"/>
<polyline class="st24" points="233.3,435.4 385.4,525.8 584.6,406.2 "/>
<polyline class="st24" points="233.3,444.6 385.4,535 581.9,417.2 "/>
<polyline class="st24" points="233.3,453.8 385.4,544.2 581.2,426.9 "/>
<polyline class="st24" points="233.3,463 385.4,553.4 582.6,435.1 "/>
<text transform="matrix(0.7401 0.4501 -0.8601 0.5101 456.8845 400.2048)" class="st15 st16 st25"> </text>
<line class="st26" x1="233.3" y1="430.3" x2="229.2" y2="428"/>
<g>
	<polygon class="st27" points="164.5,231.8 112.7,200.5 112.7,200 164.5,231.1 	"/>
</g>
<g>
	<polygon class="st27" points="164.5,299.4 112.7,268.1 112.7,267.4 164.5,298.7 	"/>
</g>
<linearGradient id="SVGID_8_" gradientUnits="userSpaceOnUse" x1="373.4933" y1="-840.7896" x2="511.3443" y2="-919.8973" gradientTransform="matrix(1 0 0 -1 0 -484.6626)">
	<stop  offset="0" style="stop-color:#FFFFFF;stop-opacity:0.2"/>
	<stop  offset="1" style="stop-color:#FFFFFF"/>
</linearGradient>
<polygon class="st28" points="493.3,449.2 346.7,364.5 388.4,340.4 535.2,425 "/>
<g>
	<g>
		<g>
			<path class="st11" d="M180.6,316.4c-0.2,0-0.5,0-0.7-0.2c-0.5-0.2-0.7-0.7-0.7-1.4l-0.2-26.9c0-0.7,0.2-1.2,0.5-1.8
				c0.5-0.7,0.9-1.2,1.4-1.4l9.2-5.3c2.1-1.2,3.9-1.8,5.3-1.8c0.5,0,0.9,0,1.4,0.2c1.6,0.7,2.5,2.3,2.5,4.8c0,1.8-0.2,3.5-1.2,5.1
				c-0.7,1.4-1.4,2.5-2.3,3.7c0.2,0,0.5,0,0.7,0c0.9,0,1.8,0.2,2.5,0.7c1.2,0.7,1.6,2.1,1.6,4.1c0,2.8-0.7,5.5-2.3,8.1
				c-1.6,2.5-4.1,4.8-7.6,6.9l-9.4,5.5C181.1,316.2,180.8,316.4,180.6,316.4z M194.9,295c-1.2,0-2.5,0.7-4.6,1.8l-5.8,3.5
				c-0.7,0.5-1.2,1.6-1.2,2.3l0.1,6.9c0,0.2,0,0.7,0.5,0.7c0.2,0,0.4-0.1,0.6-0.3l6-3.6c2.5-1.4,3.7-2.9,4.9-4.3
				c0.9-1.4,1-3.1,1-4.7C196.7,295.3,195.8,295,194.9,295z M193.3,282.6c-0.9,0-2.1,0.5-3.2,1.2l-5.5,3.2c-0.7,0.5-1.4,1.6-1.4,2.3
				v6.2c0,0.2,0,0.7,0.5,0.7c0.2,0,0.2,0,0.5-0.2l4.9-2.9c2.3-1.4,4.6-3,5.2-4.3c0.9-1.4,1-2.8,1-4.4c0-1.2-0.8-1.7-1.7-1.9
				C193.7,282.6,193.5,282.6,193.3,282.6z"/>
			<path class="st3" d="M195.3,277.8c0.5,0,0.9,0,1.4,0.2c1.6,0.5,2.3,2.1,2.3,4.6c0,1.6-0.2,3.5-0.9,4.8c-0.7,1.6-1.6,3-2.8,4.1
				c0.5-0.2,0.9-0.2,1.4-0.2c0.9,0,1.6,0.2,2.3,0.7c0.9,0.7,1.6,1.8,1.6,3.9c0,2.8-0.7,5.3-2.3,7.8c-1.6,2.5-4.1,4.6-7.6,6.7
				l-9.4,5.5c-0.2,0.2-0.5,0.2-0.7,0.2c-0.2,0-0.2,0-0.5,0c-0.2-0.2-0.5-0.5-0.5-1.2l-0.2-26.9c0-0.5,0.2-1.2,0.5-1.8
				c0.2-0.7,0.7-1.2,1.2-1.4l9.2-5.3C192.1,278.2,193.9,277.8,195.3,277.8 M183.8,296.4c0.2,0,0.5,0,0.7-0.2l4.8-3
				c2.3-1.4,3.9-2.8,4.8-4.1c0.9-1.4,1.4-3,1.4-4.6c0-1.4-0.5-2.3-1.6-2.5c-0.2,0-0.5,0-0.7,0c-0.9,0-2.1,0.5-3.5,1.2l-5.5,3.2
				c-0.9,0.5-1.4,1.6-1.4,2.5v6.2C182.9,296.2,183.4,296.4,183.8,296.4 M183.8,310.2c0.2,0,0.5,0,0.7-0.2l5.8-3.5
				c2.5-1.4,4.1-3,5.3-4.4c0.9-1.6,1.6-3,1.6-4.6c0-1.8-0.7-2.8-2.1-2.8c-1.2,0-2.8,0.7-4.6,1.8l-5.8,3.5c-0.9,0.5-1.4,1.6-1.4,2.5
				v6.7C183.1,310,183.4,310.2,183.8,310.2 M195.3,277.1c-1.4,0-3.2,0.7-5.3,1.8l-9.2,5.3c-0.7,0.2-1.2,0.9-1.4,1.6
				c-0.5,0.7-0.5,1.4-0.5,2.1l0.2,26.9c0,0.9,0.5,1.4,0.9,1.6c0.2,0.2,0.5,0.2,0.7,0.2c0.5,0,0.7,0,1.2-0.2l9.4-5.5
				c3.5-2.1,6-4.4,7.6-6.9c1.6-2.5,2.5-5.3,2.5-8.1c0-2.1-0.7-3.5-1.8-4.4c-0.7-0.5-1.6-0.7-2.8-0.7l0,0c0.7-0.9,1.4-2.1,1.8-3.2
				c0.7-1.6,1.2-3.5,1.2-5.1c0-2.8-0.9-4.4-2.8-5.1C196.2,277.3,195.8,277.1,195.3,277.1L195.3,277.1z M183.8,295.9
				c-0.2,0-0.2-0.2-0.2-0.5v-6.2c0-0.7,0.5-1.6,1.2-2.1l5.5-3.2c1.4-0.7,2.3-1.2,3.2-1.2c0.2,0,0.2,0,0.5,0c0.5,0,1.2,0.5,1.2,1.8
				s-0.5,3-1.2,4.1c-0.9,1.4-2.3,2.8-4.6,3.9l-4.8,3C183.8,295.9,183.8,295.9,183.8,295.9L183.8,295.9z M183.8,309.8
				c-0.2,0-0.2-0.2-0.2-0.5v-6.7c0-0.7,0.5-1.6,1.2-2.1l5.8-3.5c1.8-1.2,3.5-1.6,4.4-1.6c0.5,0,1.6,0,1.6,2.3c0,1.4-0.5,3-1.4,4.4
				c-0.9,1.4-2.8,2.8-5.1,4.4l-5.8,3.5C184.1,309.8,183.8,309.8,183.8,309.8L183.8,309.8z"/>
		</g>
	</g>
	<path class="st4" d="M183.1,314.8v7.1c0,0.2,0.2,0,0.2,0l1.8-4.4c0-0.2,0.2-0.2,0.2-0.2l1.8,2.1c0,0,0.2,0,0.2-0.2v-7.4
		L183.1,314.8z"/>
</g>
<path class="st4" d="M123.1,215.9l0.5,49.2c0,1.2,1.2,2.1,1.6,1.6l12.4-15.2c0.5-0.5,1.2,0,1.6,0.9l12.9,29.7
	c0.5,1.2,1.6,1.4,1.6,0.5l-0.5-49.2L123.1,215.9z"/>
<g class="st29">
	<path class="st11" d="M211.1,296.2c-2-0.2-3.6-1.2-4.7-2.9c-1.1-1.7-1.7-4.2-1.7-7.2c0.1-3.1,0.6-6.2,1.7-9.2
		c1.1-3,2.6-5.8,4.7-8.3c2-2.5,4.4-4.5,7-6.1c2.7-1.5,5-2.2,7-2c2,0.2,3.6,1.2,4.7,2.9c1.1,1.8,1.7,4.1,1.7,7.2
		c-0.1,3.1-0.6,6.1-1.7,9.2c-1.1,3-2.7,5.8-4.7,8.3c-2,2.5-4.3,4.5-7,6.1C215.5,295.7,213.1,296.4,211.1,296.2z M223.5,285.7
		c1.5-1.9,2.6-4,3.4-6.3c0.8-2.3,1.2-4.6,1.2-6.9s-0.4-4.1-1.2-5.5c-0.8-1.4-1.9-2.1-3.4-2.3c-1.5-0.2-3.3,0.3-5.3,1.5
		c-2.1,1.2-3.8,2.7-5.3,4.7c-1.5,1.9-2.6,4-3.4,6.3c-0.8,2.3-1.2,4.6-1.2,6.9c0,2.3,0.4,4.1,1.2,5.5c0.8,1.4,1.9,2.2,3.4,2.3
		c1.5,0.2,3.3-0.3,5.3-1.5C220.2,289.2,222,287.7,223.5,285.7z"/>
	<path class="st11" d="M242.1,278.3c-2-0.2-3.6-1.2-4.7-2.9c-1.1-1.7-1.7-4.2-1.7-7.2c0.1-3.1,0.6-6.2,1.7-9.2s2.6-5.8,4.7-8.3
		c2-2.5,4.4-4.5,7-6.1s5-2.2,7-2c2,0.2,3.6,1.2,4.7,2.9c1.1,1.8,1.7,4.1,1.7,7.2c-0.1,3.1-0.6,6.1-1.7,9.2c-1.1,3-2.7,5.8-4.7,8.3
		c-2,2.5-4.3,4.5-7,6.1S244.2,278.5,242.1,278.3z M254.5,267.8c1.5-1.9,2.6-4,3.4-6.3c0.8-2.3,1.2-4.6,1.2-6.9s-0.4-4.1-1.2-5.5
		c-0.8-1.4-1.9-2.1-3.4-2.3c-1.5-0.2-3.3,0.3-5.3,1.5c-2.1,1.2-3.8,2.7-5.3,4.7c-1.5,1.9-2.6,4-3.4,6.3c-0.8,2.3-1.2,4.6-1.2,6.9
		c0,2.3,0.4,4.1,1.2,5.5s1.9,2.1,3.4,2.3c1.5,0.2,3.3-0.3,5.3-1.5C251.2,271.3,253,269.8,254.5,267.8z"/>
	<path class="st11" d="M268.9,264.1c-0.3-0.2-0.5-0.6-0.5-1.1v-27.2c0-0.6,0.2-1.1,0.5-1.7c0.3-0.6,0.7-1,1.2-1.3
		c0.5-0.3,0.9-0.3,1.2-0.1c0.3,0.2,0.5,0.6,0.5,1.1v14l13.1-22.9c0.4-0.7,0.8-1.2,1.3-1.5c0.4-0.2,0.8-0.3,1.1-0.1
		c0.3,0.2,0.5,0.5,0.5,1c0,0.6-0.1,1.1-0.4,1.6l-8.8,15.2l10.1,8.9c0.3,0.3,0.4,0.6,0.4,1c0,0.5-0.1,1.1-0.5,1.6
		c-0.3,0.6-0.7,1-1.2,1.3c-0.6,0.3-1,0.3-1.4,0l-9.9-8.8l-4.4,7.6v8.2c0,0.6-0.2,1.1-0.5,1.7c-0.3,0.6-0.8,1-1.2,1.3
		C269.6,264.2,269.2,264.3,268.9,264.1z"/>
	<path class="st11" d="M303.2,242.9c-0.3,0-0.6-0.1-0.8-0.3c-0.2-0.2-0.3-0.5-0.3-0.9c0-0.5,0.1-1,0.4-1.6s0.7-0.9,1.1-1.2
		c0.3-0.1,0.5-0.2,0.7-0.2c2.3-0.1,4.8-1,7.5-2.5c4.5-2.6,6.7-5.5,6.7-8.9c0-0.9-0.3-1.4-0.9-1.7c-0.6-0.3-1.3-0.3-2.1-0.2
		c-0.8,0.1-2,0.4-3.6,0.9c-2.1,0.6-3.7,0.9-5,1.1c-1.3,0.2-2.4-0.1-3.3-0.7c-0.9-0.6-1.4-1.9-1.4-3.8c0-1.7,0.4-3.4,1.1-5.2
		c0.8-1.8,1.9-3.5,3.4-5.2c1.5-1.7,3.3-3.1,5.4-4.3c2.8-1.6,5.3-2.6,7.6-2.9c0.7-0.1,1.1,0.3,1.1,1.1c0,0.5-0.1,1-0.4,1.5
		c-0.3,0.5-0.6,0.9-1.1,1.2c-0.2,0.1-0.4,0.1-0.6,0.2c-2,0.4-4,1.1-6.1,2.4c-2,1.2-3.6,2.5-4.9,4.2s-1.9,3.2-1.9,4.8
		c0,1.1,0.3,1.7,0.9,2.1c0.6,0.3,1.3,0.4,2.3,0.2c0.9-0.2,2.1-0.5,3.7-1c2-0.6,3.6-1,4.9-1.1c1.2-0.2,2.3,0.1,3.2,0.8
		c0.9,0.7,1.3,2,1.3,4c0,1.6-0.4,3.4-1.2,5.1c-0.8,1.8-2,3.5-3.4,5c-1.5,1.6-3.2,2.9-5.1,4.1C309,241.7,306,242.7,303.2,242.9z"/>
	<path class="st11" d="M327.9,230c-0.3-0.2-0.5-0.6-0.5-1.1v-27.2c0-0.6,0.2-1.1,0.5-1.7c0.3-0.6,0.7-1,1.2-1.3s0.9-0.3,1.2-0.1
		c0.3,0.2,0.5,0.6,0.5,1.1v27.2c0,0.6-0.2,1.1-0.5,1.7c-0.3,0.6-0.8,1-1.2,1.3S328.2,230.2,327.9,230z"/>
	<path class="st11" d="M343.1,220c-2-0.2-3.6-1.1-4.7-2.9c-1.1-1.7-1.7-4.2-1.7-7.2c0-3.1,0.6-6.2,1.8-9.3c1.2-3.1,2.8-5.9,4.8-8.4
		c2-2.5,4.3-4.4,6.7-5.9c2-1.1,3.7-1.9,5.2-2.2c1.5-0.3,2.9-0.3,4.3-0.1c0.2,0,0.4,0.1,0.5,0.3c0.2,0.2,0.2,0.5,0.2,0.8
		c0,0.5-0.1,1-0.4,1.5s-0.7,0.9-1.2,1.2c-0.3,0.2-0.5,0.2-0.8,0.2c-1.2-0.1-2.4-0.1-3.6,0.2c-1.2,0.3-2.5,0.8-3.9,1.6
		c-1.9,1.1-3.7,2.6-5.2,4.4c-1.6,1.8-2.8,3.9-3.6,6.2c-0.9,2.3-1.3,4.7-1.3,7.2c0,2.3,0.4,4.1,1.2,5.4c0.8,1.3,2,2.1,3.6,2.2
		c1.6,0.1,3.4-0.4,5.6-1.6c2.4-1.4,4.6-3.3,6.7-5.8v-8l-6.3,3.6c-0.4,0.3-0.8,0.3-1.1,0.1c-0.3-0.2-0.5-0.5-0.5-1s0.2-1,0.5-1.5
		c0.3-0.5,0.7-0.9,1.1-1.2l7.5-4.3c0.5-0.3,0.9-0.3,1.3-0.1c0.4,0.2,0.5,0.6,0.5,1.2v10c0,0.6-0.1,1.2-0.4,1.9s-0.6,1.2-1,1.7
		c-2.9,3.3-5.8,5.8-8.7,7.5C347.4,219.5,345.1,220.2,343.1,220z"/>
	<path class="st11" d="M367.7,207c-0.3-0.2-0.5-0.6-0.5-1.1v-27.2c0-0.6,0.2-1.1,0.5-1.7c0.3-0.6,0.7-1,1.2-1.3
		c0.5-0.3,0.9-0.3,1.2-0.1c0.3,0.2,0.5,0.6,0.5,1.1v11.7l14.5-8.4v-11.7c0-0.6,0.2-1.1,0.5-1.7c0.3-0.6,0.7-1,1.2-1.3
		c0.5-0.3,0.9-0.3,1.2-0.1c0.3,0.2,0.5,0.6,0.5,1.1v27.2c0,0.6-0.2,1.1-0.5,1.7c-0.3,0.6-0.8,1-1.2,1.3c-0.5,0.3-0.9,0.3-1.2,0.1
		c-0.3-0.2-0.5-0.6-0.5-1.1v-11.7l-14.5,8.4v11.7c0,0.6-0.2,1.1-0.5,1.7c-0.3,0.6-0.8,1-1.2,1.3C368.4,207.2,368,207.2,367.7,207z"
		/>
	<path class="st11" d="M402.7,186.8c-0.3-0.2-0.5-0.6-0.5-1.1v-25.3l-7.8,4.5c-0.5,0.3-0.8,0.3-1.1,0.1c-0.3-0.2-0.5-0.5-0.5-1.1
		c0-0.5,0.2-1.1,0.5-1.6c0.3-0.5,0.7-0.9,1.1-1.2l19-11c0.5-0.3,0.8-0.3,1.2-0.1c0.3,0.2,0.5,0.5,0.5,1.1s-0.2,1.1-0.5,1.6
		c-0.3,0.5-0.7,0.9-1.2,1.2l-7.8,4.5v25.3c0,0.6-0.2,1.1-0.5,1.7c-0.3,0.6-0.8,1-1.2,1.3C403.4,187,403,187,402.7,186.8z"/>
</g>
</svg>
