<?xml version="1.0" encoding="utf-8"?>
<!-- Generator: Adobe Illustrator 23.0.1, SVG Export Plug-In . SVG Version: 6.00 Build 0)  -->
<svg version="1.1" id="Layer_1" xmlns="http://www.w3.org/2000/svg" xmlns:xlink="http://www.w3.org/1999/xlink" x="0px" y="0px"
	 viewBox="0 0 468 559" style="enable-background:new 0 0 468 559;" xml:space="preserve">
<style type="text/css">
	.st0{fill:#FFFFFF;} <!--#ffffff00-->
	.st1{fill:#F95959;}
	.st2{fill:#455D7A;}
</style>
<rect x="92.65" y="124.68" transform="matrix(0.9161 -0.4009 0.4009 0.9161 -65.6519 59.5813)" class="st0" width="33.85" height="124.04"/>
<rect x="166.78" y="293.97" transform="matrix(0.9161 -0.4009 0.4009 0.9161 -127.2501 103.7363)" class="st0" width="35.04" height="124.04"/>
<g>
	<g>
		<g>
			<path class="st0" d="M211.59,473.71c-3.65,0-7.33-0.7-10.93-2.09c-7.86-3-13.64-8.55-17.18-16.48L34.99,122.06
				c-3.52-7.9-3.83-15.97-0.92-24c2.92-8.08,8.43-13.98,16.39-17.53l129.5-57.73c26.83-11.96,51.81-18.02,74.27-18.02
				c10.89,0,21.4,1.42,31.25,4.23c30.45,8.69,52.97,28.99,66.95,60.34c9.76,21.9,12.72,42.79,8.78,62.11
				c-3.26,15.99-9.77,30.49-19.39,43.22c2.82-0.15,5.62-0.23,8.37-0.23c18.81,0,36.66,3.61,53.05,10.72
				c21.79,9.46,38.31,26.55,49.12,50.79c15.44,34.63,15.82,67.46,1.15,97.57c-14.56,29.87-46.94,56.15-96.25,78.13l-132.79,59.2
				C220.2,472.75,215.87,473.71,211.59,473.71z M342.29,223.94c-18.11,0-40.4,5.84-66.24,17.36l-81.81,36.47
				c-9.76,4.35-14.16,15.83-9.81,25.59l36.98,82.96c3.11,6.98,10.06,11.49,17.71,11.49c2.72,0,5.37-0.57,7.88-1.68l81.26-36.22
				c34.52-15.39,56.81-31.67,66.26-48.41c9.35-16.56,9.76-33.88,1.26-52.95C385.4,235.26,367.9,223.94,342.29,223.94z M247.76,66.78
				c-14.2,0-30.22,3.93-47.6,11.68l-79.07,35.25c-4.73,2.11-8.35,5.93-10.2,10.76c-1.85,4.83-1.71,10.1,0.4,14.82l34.05,76.37
				c3.11,6.98,10.06,11.49,17.71,11.49c2.72,0,5.37-0.57,7.88-1.68l69.74-31.09c31.53-14.05,51.48-29.25,59.29-45.15
				c7.8-15.87,7.52-32.72-0.86-51.51c-7.17-16.1-19.16-25.73-36.65-29.45C257.78,67.29,252.84,66.78,247.76,66.78z"/>
			<path class="st1" d="M254.23,8.78c10.57,0,20.62,1.36,30.16,4.08c29.39,8.39,50.86,27.76,64.39,58.12
				c9.46,21.22,12.3,41.12,8.52,59.68c-3.79,18.57-11.99,34.84-24.62,48.8c5.95-0.67,11.79-1.01,17.51-1.01
				c18.35,0,35.5,3.46,51.46,10.39c20.93,9.09,36.62,25.34,47.06,48.75c15.01,33.66,15.4,65.06,1.2,94.18
				c-14.21,29.14-45.63,54.55-94.28,76.23l-132.79,59.2c-3.76,1.68-7.51,2.51-11.24,2.51c-3.18,0-6.34-0.61-9.5-1.82
				c-6.88-2.63-11.86-7.43-14.96-14.38L38.65,120.43c-3.1-6.94-3.37-13.95-0.82-21.01c2.55-7.06,7.3-12.14,14.26-15.24l129.5-57.73
				C208.02,14.67,232.24,8.78,254.23,8.78 M163.05,231.16c3.18,0,6.41-0.65,9.5-2.03l69.74-31.09
				c32.56-14.51,52.98-30.19,61.25-47.04c8.28-16.84,8.01-35.14-0.79-54.9c-7.66-17.19-20.83-27.77-39.47-31.74
				c-4.96-1.05-10.14-1.58-15.51-1.58c-14.83,0-31.24,4-49.23,12.02l-79.07,35.25c-11.79,5.26-17.09,19.08-11.83,30.87l34.05,76.37
				C145.56,225.99,154.1,231.16,163.05,231.16 M239.12,401.81c3.18,0,6.41-0.65,9.5-2.03l81.26-36.22
				c35.48-15.82,58.19-32.52,68.11-50.1c9.92-17.58,10.4-36.43,1.43-56.55c-10.99-24.64-30.04-36.97-57.14-36.97
				c-18.76,0-41.38,5.9-67.87,17.71l-81.81,36.47c-11.79,5.26-17.09,19.08-11.83,30.87l36.98,82.96
				C221.64,396.65,230.18,401.81,239.12,401.81 M254.23,0.78c-23.02,0-48.56,6.18-75.9,18.37L48.83,76.87
				C39.84,80.88,33.61,87.55,30.3,96.7c-3.27,9.03-2.92,18.11,1.03,26.99l148.48,333.08c3.98,8.94,10.52,15.19,19.41,18.6
				c4.05,1.56,8.21,2.35,12.36,2.35c4.85,0,9.72-1.08,14.5-3.21l132.79-59.2c24.85-11.08,45.65-23.33,61.83-36.41
				c16.56-13.39,28.8-28.07,36.39-43.63c15.22-31.22,14.85-65.18-1.09-100.95c-11.23-25.18-28.44-42.95-51.17-52.83
				c-16.9-7.33-35.28-11.05-54.64-11.05c-0.18,0-0.35,0-0.53,0c7.46-11.54,12.64-24.32,15.47-38.19c4.1-20.15,1.06-41.86-9.05-64.53
				c-14.48-32.48-37.86-53.53-69.5-62.56C276.37,2.25,265.49,0.78,254.23,0.78L254.23,0.78z M163.05,223.16
				c-6.07,0-11.59-3.58-14.06-9.12l-34.05-76.37c-1.67-3.75-1.78-7.93-0.31-11.76c1.47-3.84,4.35-6.87,8.1-8.54l79.07-35.25
				c16.86-7.52,32.33-11.33,45.97-11.33c4.8,0,9.46,0.47,13.85,1.41c16.14,3.44,27.21,12.32,33.83,27.17
				c7.86,17.64,8.16,33.37,0.92,48.11c-7.39,15.04-26.68,29.6-57.33,43.26l-69.74,31.09C167.3,222.71,165.2,223.16,163.05,223.16
				L163.05,223.16z M239.12,393.81c-6.07,0-11.59-3.58-14.06-9.12l-36.98-82.96c-3.45-7.74,0.04-16.85,7.78-20.3l81.81-36.47
				c25.33-11.29,47.07-17.02,64.61-17.02c23.87,0,40.17,10.54,49.83,32.23c7.95,17.83,7.59,33.98-1.09,49.36
				c-9.02,15.97-30.68,31.69-64.4,46.72l-81.26,36.22C243.38,393.36,241.28,393.81,239.12,393.81L239.12,393.81z"/>
		</g>
	</g>
	<g>
		<g>
			<path class="st0" d="M185.92,484.89c-3.65,0-7.33-0.7-10.93-2.09c-7.86-3-13.64-8.55-17.18-16.48L9.32,133.24
				c-3.52-7.9-3.83-15.97-0.92-24c2.92-8.08,8.43-13.98,16.39-17.53l129.5-57.73c26.83-11.96,51.81-18.02,74.27-18.02
				c10.89,0,21.4,1.42,31.25,4.23c30.45,8.69,52.97,28.99,66.95,60.34c9.76,21.9,12.72,42.79,8.78,62.11
				c-3.26,15.99-9.77,30.49-19.39,43.22c2.82-0.15,5.62-0.23,8.37-0.23c18.81,0,36.66,3.61,53.05,10.72
				c21.79,9.46,38.31,26.55,49.12,50.79c15.44,34.63,15.82,67.46,1.15,97.56c-14.56,29.87-46.94,56.16-96.25,78.13l-132.79,59.2
				C194.53,483.92,190.2,484.89,185.92,484.89z M316.62,235.12c-18.11,0-40.4,5.84-66.24,17.36l-81.81,36.47
				c-4.73,2.11-8.35,5.93-10.2,10.76c-1.85,4.83-1.71,10.1,0.4,14.82l36.98,82.96c3.11,6.98,10.06,11.49,17.71,11.49h0
				c2.72,0,5.37-0.57,7.87-1.68l81.26-36.23c34.52-15.39,56.81-31.67,66.26-48.41c9.35-16.56,9.76-33.88,1.26-52.95
				C359.73,246.44,342.23,235.12,316.62,235.12z M222.09,77.96c-14.2,0-30.22,3.93-47.6,11.68l-79.07,35.25
				c-4.73,2.11-8.35,5.93-10.2,10.76c-1.85,4.83-1.71,10.1,0.4,14.82l34.04,76.37c3.11,6.98,10.06,11.49,17.71,11.49
				c2.72,0,5.37-0.57,7.88-1.68l69.74-31.09c31.53-14.05,51.48-29.25,59.29-45.15c7.8-15.87,7.52-32.72-0.86-51.51
				c-7.18-16.1-19.17-25.73-36.65-29.45C232.11,78.47,227.17,77.96,222.09,77.96z"/>
			<path class="st1" d="M228.56,19.96c10.57,0,20.62,1.36,30.16,4.08c29.39,8.39,50.86,27.76,64.39,58.12
				c9.46,21.22,12.3,41.12,8.52,59.68c-3.79,18.57-11.99,34.84-24.62,48.8c5.95-0.67,11.79-1.01,17.51-1.01
				c18.35,0,35.5,3.46,51.46,10.39c20.93,9.09,36.62,25.34,47.05,48.75c15.01,33.66,15.4,65.06,1.2,94.18
				c-14.21,29.14-45.63,54.55-94.28,76.23l-132.79,59.2c-3.76,1.68-7.51,2.51-11.24,2.51c-3.18,0-6.34-0.61-9.5-1.82
				c-6.88-2.63-11.86-7.43-14.96-14.38L12.97,131.61c-3.1-6.94-3.37-13.95-0.82-21.01c2.55-7.06,7.3-12.14,14.26-15.24l129.5-57.73
				C182.35,25.85,206.57,19.96,228.56,19.96 M137.38,242.34c3.18,0,6.41-0.65,9.5-2.03l69.74-31.09
				c32.56-14.51,52.97-30.19,61.25-47.04c8.28-16.84,8.01-35.14-0.79-54.9c-7.66-17.19-20.83-27.77-39.47-31.74
				c-4.96-1.05-10.14-1.58-15.51-1.58c-14.83,0-31.24,4-49.23,12.02L93.8,121.23c-11.79,5.26-17.09,19.08-11.83,30.87l34.05,76.37
				C119.89,237.17,128.43,242.34,137.38,242.34 M213.45,412.99c3.18,0,6.41-0.65,9.5-2.03l81.26-36.22
				c35.48-15.82,58.19-32.52,68.11-50.1c9.92-17.58,10.4-36.43,1.43-56.55c-10.99-24.64-30.04-36.97-57.14-36.97
				c-18.76,0-41.38,5.9-67.87,17.71l-81.81,36.47c-11.79,5.26-17.09,19.08-11.83,30.87l36.98,82.96
				C195.96,407.83,204.5,412.99,213.45,412.99 M228.56,11.96c-23.02,0-48.56,6.18-75.9,18.37L23.16,88.05
				c-8.99,4.01-15.22,10.68-18.52,19.82c-3.27,9.03-2.92,18.11,1.03,26.99l148.48,333.08c3.98,8.94,10.52,15.19,19.41,18.6
				c4.05,1.56,8.21,2.35,12.36,2.35c4.85,0,9.72-1.08,14.5-3.21l132.79-59.2c24.85-11.08,45.65-23.33,61.83-36.41
				c16.56-13.39,28.8-28.07,36.39-43.63c15.22-31.22,14.85-65.18-1.09-100.95c-11.23-25.18-28.44-42.95-51.17-52.83
				c-16.9-7.33-35.28-11.05-54.64-11.05c-0.18,0-0.35,0-0.53,0c7.46-11.54,12.64-24.32,15.47-38.19c4.1-20.15,1.06-41.86-9.05-64.53
				c-14.48-32.48-37.86-53.53-69.5-62.56C250.7,13.43,239.82,11.96,228.56,11.96L228.56,11.96z M137.38,234.34
				c-6.07,0-11.59-3.58-14.06-9.12l-34.05-76.37c-3.45-7.74,0.04-16.85,7.78-20.3l79.07-35.25c16.86-7.52,32.33-11.33,45.97-11.33
				c4.8,0,9.46,0.47,13.85,1.41c16.14,3.44,27.21,12.32,33.83,27.17c7.86,17.64,8.16,33.37,0.92,48.11
				c-7.39,15.04-26.68,29.6-57.33,43.26L143.62,233C141.63,233.89,139.53,234.34,137.38,234.34L137.38,234.34z M213.45,404.99
				c-6.07,0-11.59-3.58-14.06-9.12l-36.98-82.96c-3.45-7.74,0.04-16.85,7.78-20.3l81.81-36.47c25.33-11.29,47.07-17.02,64.61-17.02
				c23.87,0,40.17,10.54,49.83,32.23c7.95,17.83,7.59,33.98-1.09,49.36c-9.02,15.97-30.68,31.69-64.4,46.72l-81.26,36.22
				C217.71,404.54,215.6,404.99,213.45,404.99L213.45,404.99z"/>
		</g>
	</g>
	<path class="st2" d="M222.4,467.12l40.72,90.33c0.88,1.95,3.76,1.57,4.1-0.54l8.65-53.02c0.25-1.53,1.98-2.31,3.29-1.48l45.6,28.89
		c1.81,1.15,4-0.75,3.13-2.71l-40.35-90.52L222.4,467.12z"/>
</g>
</svg>
